G04 #@! TF.GenerationSoftware,KiCad,Pcbnew,(5.0.0)*
G04 #@! TF.CreationDate,2018-08-28T03:14:06+03:00*
G04 #@! TF.ProjectId,LNA_PCB,4C4E415F5043422E6B696361645F7063,rev?*
G04 #@! TF.SameCoordinates,Original*
G04 #@! TF.FileFunction,Copper,L2,Bot,Signal*
G04 #@! TF.FilePolarity,Positive*
%FSLAX46Y46*%
G04 Gerber Fmt 4.6, Leading zero omitted, Abs format (unit mm)*
G04 Created by KiCad (PCBNEW (5.0.0)) date 08/28/18 03:14:06*
%MOMM*%
%LPD*%
G01*
G04 APERTURE LIST*
G04 #@! TA.AperFunction,Conductor*
%ADD10R,0.950000X0.460000*%
G04 #@! TD*
G04 #@! TA.AperFunction,ViaPad*
%ADD11C,0.970000*%
G04 #@! TD*
G04 #@! TA.AperFunction,SMDPad,CuDef*
%ADD12R,5.080000X2.420000*%
G04 #@! TD*
G04 #@! TA.AperFunction,ViaPad*
%ADD13C,0.800000*%
G04 #@! TD*
G04 #@! TA.AperFunction,ViaPad*
%ADD14C,1.000000*%
G04 #@! TD*
G04 #@! TA.AperFunction,Conductor*
%ADD15C,0.900000*%
G04 #@! TD*
G04 #@! TA.AperFunction,Conductor*
%ADD16C,0.254000*%
G04 #@! TD*
G04 APERTURE END LIST*
D10*
G04 #@! TO.N,GND*
G04 #@! TO.C,J2*
X133858000Y-120712000D03*
X133858000Y-111952000D03*
D11*
X134308000Y-120712000D03*
X134308000Y-111952000D03*
D12*
G04 #@! TD*
G04 #@! TO.P,J2,2*
G04 #@! TO.N,GND*
X130868000Y-120712000D03*
G04 #@! TO.P,J2,2*
G04 #@! TO.N,GND*
X130868000Y-111952000D03*
G04 #@! TD*
G04 #@! TO.P,J3,2*
G04 #@! TO.N,GND*
X169270680Y-120427520D03*
X169270680Y-111667520D03*
D11*
G04 #@! TD*
G04 #@! TO.N,GND*
G04 #@! TO.C,J3*
X165830680Y-120427520D03*
G04 #@! TO.N,GND*
G04 #@! TO.C,J3*
X165830680Y-111667520D03*
D10*
X166280680Y-120427520D03*
X166280680Y-111667520D03*
G04 #@! TD*
D13*
G04 #@! TO.N,GND*
X137414000Y-119380000D03*
X141224000Y-119380000D03*
X145542000Y-119380000D03*
X149860000Y-119380000D03*
X154432000Y-119380000D03*
X158496000Y-119380000D03*
X162306000Y-119380000D03*
X137160000Y-113030000D03*
X141224000Y-113030000D03*
X145542000Y-113030000D03*
X148844000Y-113030000D03*
X148844000Y-109474000D03*
X148844000Y-104902000D03*
X148844000Y-101092000D03*
X148844000Y-95758000D03*
X156464000Y-112522000D03*
X161544000Y-112522000D03*
X156210000Y-109220000D03*
X156210000Y-104902000D03*
X156210000Y-101092000D03*
X156210000Y-95758000D03*
X156210000Y-90932000D03*
X156210000Y-86614000D03*
X156210000Y-82296000D03*
X156210000Y-78994000D03*
X159766000Y-78994000D03*
X164846000Y-78994000D03*
X164846000Y-74422000D03*
X164846000Y-69850000D03*
X164846000Y-65024000D03*
X144780000Y-95758000D03*
X140462000Y-95758000D03*
X140208000Y-89662000D03*
X140208000Y-84328000D03*
X150196778Y-82804000D03*
X131064000Y-126746000D03*
X143002000Y-126746000D03*
X155448000Y-126746000D03*
X169926000Y-126746000D03*
X150114000Y-79248000D03*
X171196000Y-94996000D03*
X170942000Y-77470000D03*
X129794000Y-99822000D03*
X129540000Y-88138000D03*
X129540000Y-76708000D03*
X129794000Y-66548000D03*
X136652000Y-66040000D03*
X144272000Y-66548000D03*
X144526000Y-72390000D03*
X142494000Y-76962000D03*
D14*
G04 #@! TO.N,Net-(C1-Pad2)*
X140716000Y-81407000D03*
X155448000Y-75057000D03*
G04 #@! TD*
D15*
G04 #@! TO.N,Net-(C1-Pad2)*
X140716000Y-81407000D02*
X140716000Y-77470000D01*
X140716000Y-77470000D02*
X143129000Y-75057000D01*
X143129000Y-75057000D02*
X155448000Y-75057000D01*
G04 #@! TD*
D16*
G04 #@! TO.N,GND*
G36*
X171503405Y-126798000D02*
X128726000Y-126798000D01*
X128726000Y-81181234D01*
X139581000Y-81181234D01*
X139581000Y-81632766D01*
X139753793Y-82049926D01*
X140073074Y-82369207D01*
X140490234Y-82542000D01*
X140941766Y-82542000D01*
X141358926Y-82369207D01*
X141678207Y-82049926D01*
X141851000Y-81632766D01*
X141851000Y-81181234D01*
X141801000Y-81060523D01*
X141801000Y-77919420D01*
X143578421Y-76142000D01*
X155101523Y-76142000D01*
X155222234Y-76192000D01*
X155673766Y-76192000D01*
X156090926Y-76019207D01*
X156410207Y-75699926D01*
X156583000Y-75282766D01*
X156583000Y-74831234D01*
X156410207Y-74414074D01*
X156090926Y-74094793D01*
X155673766Y-73922000D01*
X155222234Y-73922000D01*
X155101523Y-73972000D01*
X143235855Y-73972000D01*
X143128999Y-73950745D01*
X143022143Y-73972000D01*
X143022139Y-73972000D01*
X142705654Y-74034953D01*
X142346759Y-74274759D01*
X142286226Y-74365353D01*
X140024354Y-76627226D01*
X139933760Y-76687759D01*
X139873228Y-76778352D01*
X139693953Y-77046655D01*
X139609745Y-77470000D01*
X139631001Y-77576862D01*
X139631000Y-81060523D01*
X139581000Y-81181234D01*
X128726000Y-81181234D01*
X128726000Y-69092830D01*
X148559738Y-69092830D01*
X148559738Y-69544362D01*
X148732531Y-69961522D01*
X149051812Y-70280803D01*
X149468972Y-70453596D01*
X149920504Y-70453596D01*
X150337664Y-70280803D01*
X150656945Y-69961522D01*
X150829738Y-69544362D01*
X150829738Y-69092830D01*
X152959738Y-69092830D01*
X152959738Y-69544362D01*
X153132531Y-69961522D01*
X153451812Y-70280803D01*
X153868972Y-70453596D01*
X154320504Y-70453596D01*
X154737664Y-70280803D01*
X155056945Y-69961522D01*
X155229738Y-69544362D01*
X155229738Y-69092830D01*
X155056945Y-68675670D01*
X154737664Y-68356389D01*
X154320504Y-68183596D01*
X153868972Y-68183596D01*
X153451812Y-68356389D01*
X153132531Y-68675670D01*
X152959738Y-69092830D01*
X150829738Y-69092830D01*
X150656945Y-68675670D01*
X150337664Y-68356389D01*
X149920504Y-68183596D01*
X149468972Y-68183596D01*
X149051812Y-68356389D01*
X148732531Y-68675670D01*
X148559738Y-69092830D01*
X128726000Y-69092830D01*
X128726000Y-64083000D01*
X171627593Y-64083000D01*
X171503405Y-126798000D01*
X171503405Y-126798000D01*
G37*
X171503405Y-126798000D02*
X128726000Y-126798000D01*
X128726000Y-81181234D01*
X139581000Y-81181234D01*
X139581000Y-81632766D01*
X139753793Y-82049926D01*
X140073074Y-82369207D01*
X140490234Y-82542000D01*
X140941766Y-82542000D01*
X141358926Y-82369207D01*
X141678207Y-82049926D01*
X141851000Y-81632766D01*
X141851000Y-81181234D01*
X141801000Y-81060523D01*
X141801000Y-77919420D01*
X143578421Y-76142000D01*
X155101523Y-76142000D01*
X155222234Y-76192000D01*
X155673766Y-76192000D01*
X156090926Y-76019207D01*
X156410207Y-75699926D01*
X156583000Y-75282766D01*
X156583000Y-74831234D01*
X156410207Y-74414074D01*
X156090926Y-74094793D01*
X155673766Y-73922000D01*
X155222234Y-73922000D01*
X155101523Y-73972000D01*
X143235855Y-73972000D01*
X143128999Y-73950745D01*
X143022143Y-73972000D01*
X143022139Y-73972000D01*
X142705654Y-74034953D01*
X142346759Y-74274759D01*
X142286226Y-74365353D01*
X140024354Y-76627226D01*
X139933760Y-76687759D01*
X139873228Y-76778352D01*
X139693953Y-77046655D01*
X139609745Y-77470000D01*
X139631001Y-77576862D01*
X139631000Y-81060523D01*
X139581000Y-81181234D01*
X128726000Y-81181234D01*
X128726000Y-69092830D01*
X148559738Y-69092830D01*
X148559738Y-69544362D01*
X148732531Y-69961522D01*
X149051812Y-70280803D01*
X149468972Y-70453596D01*
X149920504Y-70453596D01*
X150337664Y-70280803D01*
X150656945Y-69961522D01*
X150829738Y-69544362D01*
X150829738Y-69092830D01*
X152959738Y-69092830D01*
X152959738Y-69544362D01*
X153132531Y-69961522D01*
X153451812Y-70280803D01*
X153868972Y-70453596D01*
X154320504Y-70453596D01*
X154737664Y-70280803D01*
X155056945Y-69961522D01*
X155229738Y-69544362D01*
X155229738Y-69092830D01*
X155056945Y-68675670D01*
X154737664Y-68356389D01*
X154320504Y-68183596D01*
X153868972Y-68183596D01*
X153451812Y-68356389D01*
X153132531Y-68675670D01*
X152959738Y-69092830D01*
X150829738Y-69092830D01*
X150656945Y-68675670D01*
X150337664Y-68356389D01*
X149920504Y-68183596D01*
X149468972Y-68183596D01*
X149051812Y-68356389D01*
X148732531Y-68675670D01*
X148559738Y-69092830D01*
X128726000Y-69092830D01*
X128726000Y-64083000D01*
X171627593Y-64083000D01*
X171503405Y-126798000D01*
G04 #@! TD*
M02*
