G04 #@! TF.GenerationSoftware,KiCad,Pcbnew,(5.0.0)*
G04 #@! TF.CreationDate,2018-08-28T03:14:06+03:00*
G04 #@! TF.ProjectId,LNA_PCB,4C4E415F5043422E6B696361645F7063,rev?*
G04 #@! TF.SameCoordinates,Original*
G04 #@! TF.FileFunction,Copper,L1,Top,Signal*
G04 #@! TF.FilePolarity,Positive*
%FSLAX46Y46*%
G04 Gerber Fmt 4.6, Leading zero omitted, Abs format (unit mm)*
G04 Created by KiCad (PCBNEW (5.0.0)) date 08/28/18 03:14:06*
%MOMM*%
%LPD*%
G01*
G04 APERTURE LIST*
G04 #@! TA.AperFunction,SMDPad,CuDef*
%ADD10C,0.600000*%
G04 #@! TD*
G04 #@! TA.AperFunction,Conductor*
%ADD11C,0.100000*%
G04 #@! TD*
G04 #@! TA.AperFunction,SMDPad,CuDef*
%ADD12C,1.150000*%
G04 #@! TD*
G04 #@! TA.AperFunction,SMDPad,CuDef*
%ADD13C,0.950000*%
G04 #@! TD*
G04 #@! TA.AperFunction,SMDPad,CuDef*
%ADD14R,0.500000X2.000000*%
G04 #@! TD*
G04 #@! TA.AperFunction,SMDPad,CuDef*
%ADD15R,2.000000X1.700000*%
G04 #@! TD*
G04 #@! TA.AperFunction,Conductor*
%ADD16R,0.950000X0.460000*%
G04 #@! TD*
G04 #@! TA.AperFunction,ViaPad*
%ADD17C,0.970000*%
G04 #@! TD*
G04 #@! TA.AperFunction,SMDPad,CuDef*
%ADD18R,5.080000X2.420000*%
G04 #@! TD*
G04 #@! TA.AperFunction,SMDPad,CuDef*
%ADD19R,5.080000X2.290000*%
G04 #@! TD*
G04 #@! TA.AperFunction,SMDPad,CuDef*
%ADD20R,0.650000X1.060000*%
G04 #@! TD*
G04 #@! TA.AperFunction,ViaPad*
%ADD21C,0.800000*%
G04 #@! TD*
G04 #@! TA.AperFunction,ViaPad*
%ADD22C,1.000000*%
G04 #@! TD*
G04 #@! TA.AperFunction,Conductor*
%ADD23C,0.600000*%
G04 #@! TD*
G04 #@! TA.AperFunction,Conductor*
%ADD24C,0.900000*%
G04 #@! TD*
G04 #@! TA.AperFunction,Conductor*
%ADD25C,1.000000*%
G04 #@! TD*
G04 #@! TA.AperFunction,Conductor*
%ADD26C,0.700000*%
G04 #@! TD*
G04 #@! TA.AperFunction,Conductor*
%ADD27C,0.800000*%
G04 #@! TD*
G04 #@! TA.AperFunction,Conductor*
%ADD28C,0.254000*%
G04 #@! TD*
G04 APERTURE END LIST*
D10*
G04 #@! TO.P,U2,4*
G04 #@! TO.N,GND*
X148880268Y-117313157D03*
D11*
G04 #@! TD*
G04 #@! TO.N,GND*
G04 #@! TO.C,U2*
G36*
X149302918Y-117350134D02*
X148843291Y-117735807D01*
X148457618Y-117276180D01*
X148917245Y-116890507D01*
X149302918Y-117350134D01*
X149302918Y-117350134D01*
G37*
D10*
G04 #@! TO.P,U2,3*
G04 #@! TO.N,Net-(C6-Pad1)*
X148044644Y-116317299D03*
D11*
G04 #@! TD*
G04 #@! TO.N,Net-(C6-Pad1)*
G04 #@! TO.C,U2*
G36*
X148467294Y-116354276D02*
X148007667Y-116739949D01*
X147621994Y-116280322D01*
X148081621Y-115894649D01*
X148467294Y-116354276D01*
X148467294Y-116354276D01*
G37*
D10*
G04 #@! TO.P,U2,2*
G04 #@! TO.N,GND*
X149346920Y-115224560D03*
D11*
G04 #@! TD*
G04 #@! TO.N,GND*
G04 #@! TO.C,U2*
G36*
X149769570Y-115261537D02*
X149309943Y-115647210D01*
X148924270Y-115187583D01*
X149383897Y-114801910D01*
X149769570Y-115261537D01*
X149769570Y-115261537D01*
G37*
D10*
G04 #@! TO.P,U2,1*
G04 #@! TO.N,Net-(C10-Pad2)*
X150182544Y-116220418D03*
D11*
G04 #@! TD*
G04 #@! TO.N,Net-(C10-Pad2)*
G04 #@! TO.C,U2*
G36*
X150605194Y-116257395D02*
X150145567Y-116643068D01*
X149759894Y-116183441D01*
X150219521Y-115797768D01*
X150605194Y-116257395D01*
X150605194Y-116257395D01*
G37*
G04 #@! TO.N,GND*
G04 #@! TO.C,C1*
G36*
X150553763Y-76554760D02*
X150578031Y-76558360D01*
X150601830Y-76564321D01*
X150624929Y-76572586D01*
X150647108Y-76583076D01*
X150668151Y-76595688D01*
X150687857Y-76610303D01*
X150706035Y-76626779D01*
X150722511Y-76644957D01*
X150737126Y-76664663D01*
X150749738Y-76685706D01*
X150760228Y-76707885D01*
X150768493Y-76730984D01*
X150774454Y-76754783D01*
X150778054Y-76779051D01*
X150779258Y-76803555D01*
X150779258Y-77703557D01*
X150778054Y-77728061D01*
X150774454Y-77752329D01*
X150768493Y-77776128D01*
X150760228Y-77799227D01*
X150749738Y-77821406D01*
X150737126Y-77842449D01*
X150722511Y-77862155D01*
X150706035Y-77880333D01*
X150687857Y-77896809D01*
X150668151Y-77911424D01*
X150647108Y-77924036D01*
X150624929Y-77934526D01*
X150601830Y-77942791D01*
X150578031Y-77948752D01*
X150553763Y-77952352D01*
X150529259Y-77953556D01*
X149879257Y-77953556D01*
X149854753Y-77952352D01*
X149830485Y-77948752D01*
X149806686Y-77942791D01*
X149783587Y-77934526D01*
X149761408Y-77924036D01*
X149740365Y-77911424D01*
X149720659Y-77896809D01*
X149702481Y-77880333D01*
X149686005Y-77862155D01*
X149671390Y-77842449D01*
X149658778Y-77821406D01*
X149648288Y-77799227D01*
X149640023Y-77776128D01*
X149634062Y-77752329D01*
X149630462Y-77728061D01*
X149629258Y-77703557D01*
X149629258Y-76803555D01*
X149630462Y-76779051D01*
X149634062Y-76754783D01*
X149640023Y-76730984D01*
X149648288Y-76707885D01*
X149658778Y-76685706D01*
X149671390Y-76664663D01*
X149686005Y-76644957D01*
X149702481Y-76626779D01*
X149720659Y-76610303D01*
X149740365Y-76595688D01*
X149761408Y-76583076D01*
X149783587Y-76572586D01*
X149806686Y-76564321D01*
X149830485Y-76558360D01*
X149854753Y-76554760D01*
X149879257Y-76553556D01*
X150529259Y-76553556D01*
X150553763Y-76554760D01*
X150553763Y-76554760D01*
G37*
D12*
G04 #@! TD*
G04 #@! TO.P,C1,1*
G04 #@! TO.N,GND*
X150204258Y-77253556D03*
D11*
G04 #@! TO.N,Net-(C1-Pad2)*
G04 #@! TO.C,C1*
G36*
X152603763Y-76554760D02*
X152628031Y-76558360D01*
X152651830Y-76564321D01*
X152674929Y-76572586D01*
X152697108Y-76583076D01*
X152718151Y-76595688D01*
X152737857Y-76610303D01*
X152756035Y-76626779D01*
X152772511Y-76644957D01*
X152787126Y-76664663D01*
X152799738Y-76685706D01*
X152810228Y-76707885D01*
X152818493Y-76730984D01*
X152824454Y-76754783D01*
X152828054Y-76779051D01*
X152829258Y-76803555D01*
X152829258Y-77703557D01*
X152828054Y-77728061D01*
X152824454Y-77752329D01*
X152818493Y-77776128D01*
X152810228Y-77799227D01*
X152799738Y-77821406D01*
X152787126Y-77842449D01*
X152772511Y-77862155D01*
X152756035Y-77880333D01*
X152737857Y-77896809D01*
X152718151Y-77911424D01*
X152697108Y-77924036D01*
X152674929Y-77934526D01*
X152651830Y-77942791D01*
X152628031Y-77948752D01*
X152603763Y-77952352D01*
X152579259Y-77953556D01*
X151929257Y-77953556D01*
X151904753Y-77952352D01*
X151880485Y-77948752D01*
X151856686Y-77942791D01*
X151833587Y-77934526D01*
X151811408Y-77924036D01*
X151790365Y-77911424D01*
X151770659Y-77896809D01*
X151752481Y-77880333D01*
X151736005Y-77862155D01*
X151721390Y-77842449D01*
X151708778Y-77821406D01*
X151698288Y-77799227D01*
X151690023Y-77776128D01*
X151684062Y-77752329D01*
X151680462Y-77728061D01*
X151679258Y-77703557D01*
X151679258Y-76803555D01*
X151680462Y-76779051D01*
X151684062Y-76754783D01*
X151690023Y-76730984D01*
X151698288Y-76707885D01*
X151708778Y-76685706D01*
X151721390Y-76664663D01*
X151736005Y-76644957D01*
X151752481Y-76626779D01*
X151770659Y-76610303D01*
X151790365Y-76595688D01*
X151811408Y-76583076D01*
X151833587Y-76572586D01*
X151856686Y-76564321D01*
X151880485Y-76558360D01*
X151904753Y-76554760D01*
X151929257Y-76553556D01*
X152579259Y-76553556D01*
X152603763Y-76554760D01*
X152603763Y-76554760D01*
G37*
D12*
G04 #@! TD*
G04 #@! TO.P,C1,2*
G04 #@! TO.N,Net-(C1-Pad2)*
X152254258Y-77253556D03*
D11*
G04 #@! TO.N,Net-(C2-Pad1)*
G04 #@! TO.C,C2*
G36*
X146056779Y-76678144D02*
X146079834Y-76681563D01*
X146102443Y-76687227D01*
X146124387Y-76695079D01*
X146145457Y-76705044D01*
X146165448Y-76717026D01*
X146184168Y-76730910D01*
X146201438Y-76746562D01*
X146217090Y-76763832D01*
X146230974Y-76782552D01*
X146242956Y-76802543D01*
X146252921Y-76823613D01*
X146260773Y-76845557D01*
X146266437Y-76868166D01*
X146269856Y-76891221D01*
X146271000Y-76914500D01*
X146271000Y-77489500D01*
X146269856Y-77512779D01*
X146266437Y-77535834D01*
X146260773Y-77558443D01*
X146252921Y-77580387D01*
X146242956Y-77601457D01*
X146230974Y-77621448D01*
X146217090Y-77640168D01*
X146201438Y-77657438D01*
X146184168Y-77673090D01*
X146165448Y-77686974D01*
X146145457Y-77698956D01*
X146124387Y-77708921D01*
X146102443Y-77716773D01*
X146079834Y-77722437D01*
X146056779Y-77725856D01*
X146033500Y-77727000D01*
X145558500Y-77727000D01*
X145535221Y-77725856D01*
X145512166Y-77722437D01*
X145489557Y-77716773D01*
X145467613Y-77708921D01*
X145446543Y-77698956D01*
X145426552Y-77686974D01*
X145407832Y-77673090D01*
X145390562Y-77657438D01*
X145374910Y-77640168D01*
X145361026Y-77621448D01*
X145349044Y-77601457D01*
X145339079Y-77580387D01*
X145331227Y-77558443D01*
X145325563Y-77535834D01*
X145322144Y-77512779D01*
X145321000Y-77489500D01*
X145321000Y-76914500D01*
X145322144Y-76891221D01*
X145325563Y-76868166D01*
X145331227Y-76845557D01*
X145339079Y-76823613D01*
X145349044Y-76802543D01*
X145361026Y-76782552D01*
X145374910Y-76763832D01*
X145390562Y-76746562D01*
X145407832Y-76730910D01*
X145426552Y-76717026D01*
X145446543Y-76705044D01*
X145467613Y-76695079D01*
X145489557Y-76687227D01*
X145512166Y-76681563D01*
X145535221Y-76678144D01*
X145558500Y-76677000D01*
X146033500Y-76677000D01*
X146056779Y-76678144D01*
X146056779Y-76678144D01*
G37*
D13*
G04 #@! TD*
G04 #@! TO.P,C2,1*
G04 #@! TO.N,Net-(C2-Pad1)*
X145796000Y-77202000D03*
D11*
G04 #@! TO.N,GND*
G04 #@! TO.C,C2*
G36*
X146056779Y-74928144D02*
X146079834Y-74931563D01*
X146102443Y-74937227D01*
X146124387Y-74945079D01*
X146145457Y-74955044D01*
X146165448Y-74967026D01*
X146184168Y-74980910D01*
X146201438Y-74996562D01*
X146217090Y-75013832D01*
X146230974Y-75032552D01*
X146242956Y-75052543D01*
X146252921Y-75073613D01*
X146260773Y-75095557D01*
X146266437Y-75118166D01*
X146269856Y-75141221D01*
X146271000Y-75164500D01*
X146271000Y-75739500D01*
X146269856Y-75762779D01*
X146266437Y-75785834D01*
X146260773Y-75808443D01*
X146252921Y-75830387D01*
X146242956Y-75851457D01*
X146230974Y-75871448D01*
X146217090Y-75890168D01*
X146201438Y-75907438D01*
X146184168Y-75923090D01*
X146165448Y-75936974D01*
X146145457Y-75948956D01*
X146124387Y-75958921D01*
X146102443Y-75966773D01*
X146079834Y-75972437D01*
X146056779Y-75975856D01*
X146033500Y-75977000D01*
X145558500Y-75977000D01*
X145535221Y-75975856D01*
X145512166Y-75972437D01*
X145489557Y-75966773D01*
X145467613Y-75958921D01*
X145446543Y-75948956D01*
X145426552Y-75936974D01*
X145407832Y-75923090D01*
X145390562Y-75907438D01*
X145374910Y-75890168D01*
X145361026Y-75871448D01*
X145349044Y-75851457D01*
X145339079Y-75830387D01*
X145331227Y-75808443D01*
X145325563Y-75785834D01*
X145322144Y-75762779D01*
X145321000Y-75739500D01*
X145321000Y-75164500D01*
X145322144Y-75141221D01*
X145325563Y-75118166D01*
X145331227Y-75095557D01*
X145339079Y-75073613D01*
X145349044Y-75052543D01*
X145361026Y-75032552D01*
X145374910Y-75013832D01*
X145390562Y-74996562D01*
X145407832Y-74980910D01*
X145426552Y-74967026D01*
X145446543Y-74955044D01*
X145467613Y-74945079D01*
X145489557Y-74937227D01*
X145512166Y-74931563D01*
X145535221Y-74928144D01*
X145558500Y-74927000D01*
X146033500Y-74927000D01*
X146056779Y-74928144D01*
X146056779Y-74928144D01*
G37*
D13*
G04 #@! TD*
G04 #@! TO.P,C2,2*
G04 #@! TO.N,GND*
X145796000Y-75452000D03*
D11*
G04 #@! TO.N,Net-(C1-Pad2)*
G04 #@! TO.C,C3*
G36*
X152257557Y-80815760D02*
X152280612Y-80819179D01*
X152303221Y-80824843D01*
X152325165Y-80832695D01*
X152346235Y-80842660D01*
X152366226Y-80854642D01*
X152384946Y-80868526D01*
X152402216Y-80884178D01*
X152417868Y-80901448D01*
X152431752Y-80920168D01*
X152443734Y-80940159D01*
X152453699Y-80961229D01*
X152461551Y-80983173D01*
X152467215Y-81005782D01*
X152470634Y-81028837D01*
X152471778Y-81052116D01*
X152471778Y-81527116D01*
X152470634Y-81550395D01*
X152467215Y-81573450D01*
X152461551Y-81596059D01*
X152453699Y-81618003D01*
X152443734Y-81639073D01*
X152431752Y-81659064D01*
X152417868Y-81677784D01*
X152402216Y-81695054D01*
X152384946Y-81710706D01*
X152366226Y-81724590D01*
X152346235Y-81736572D01*
X152325165Y-81746537D01*
X152303221Y-81754389D01*
X152280612Y-81760053D01*
X152257557Y-81763472D01*
X152234278Y-81764616D01*
X151659278Y-81764616D01*
X151635999Y-81763472D01*
X151612944Y-81760053D01*
X151590335Y-81754389D01*
X151568391Y-81746537D01*
X151547321Y-81736572D01*
X151527330Y-81724590D01*
X151508610Y-81710706D01*
X151491340Y-81695054D01*
X151475688Y-81677784D01*
X151461804Y-81659064D01*
X151449822Y-81639073D01*
X151439857Y-81618003D01*
X151432005Y-81596059D01*
X151426341Y-81573450D01*
X151422922Y-81550395D01*
X151421778Y-81527116D01*
X151421778Y-81052116D01*
X151422922Y-81028837D01*
X151426341Y-81005782D01*
X151432005Y-80983173D01*
X151439857Y-80961229D01*
X151449822Y-80940159D01*
X151461804Y-80920168D01*
X151475688Y-80901448D01*
X151491340Y-80884178D01*
X151508610Y-80868526D01*
X151527330Y-80854642D01*
X151547321Y-80842660D01*
X151568391Y-80832695D01*
X151590335Y-80824843D01*
X151612944Y-80819179D01*
X151635999Y-80815760D01*
X151659278Y-80814616D01*
X152234278Y-80814616D01*
X152257557Y-80815760D01*
X152257557Y-80815760D01*
G37*
D13*
G04 #@! TD*
G04 #@! TO.P,C3,2*
G04 #@! TO.N,Net-(C1-Pad2)*
X151946778Y-81289616D03*
D11*
G04 #@! TO.N,GND*
G04 #@! TO.C,C3*
G36*
X150507557Y-80815760D02*
X150530612Y-80819179D01*
X150553221Y-80824843D01*
X150575165Y-80832695D01*
X150596235Y-80842660D01*
X150616226Y-80854642D01*
X150634946Y-80868526D01*
X150652216Y-80884178D01*
X150667868Y-80901448D01*
X150681752Y-80920168D01*
X150693734Y-80940159D01*
X150703699Y-80961229D01*
X150711551Y-80983173D01*
X150717215Y-81005782D01*
X150720634Y-81028837D01*
X150721778Y-81052116D01*
X150721778Y-81527116D01*
X150720634Y-81550395D01*
X150717215Y-81573450D01*
X150711551Y-81596059D01*
X150703699Y-81618003D01*
X150693734Y-81639073D01*
X150681752Y-81659064D01*
X150667868Y-81677784D01*
X150652216Y-81695054D01*
X150634946Y-81710706D01*
X150616226Y-81724590D01*
X150596235Y-81736572D01*
X150575165Y-81746537D01*
X150553221Y-81754389D01*
X150530612Y-81760053D01*
X150507557Y-81763472D01*
X150484278Y-81764616D01*
X149909278Y-81764616D01*
X149885999Y-81763472D01*
X149862944Y-81760053D01*
X149840335Y-81754389D01*
X149818391Y-81746537D01*
X149797321Y-81736572D01*
X149777330Y-81724590D01*
X149758610Y-81710706D01*
X149741340Y-81695054D01*
X149725688Y-81677784D01*
X149711804Y-81659064D01*
X149699822Y-81639073D01*
X149689857Y-81618003D01*
X149682005Y-81596059D01*
X149676341Y-81573450D01*
X149672922Y-81550395D01*
X149671778Y-81527116D01*
X149671778Y-81052116D01*
X149672922Y-81028837D01*
X149676341Y-81005782D01*
X149682005Y-80983173D01*
X149689857Y-80961229D01*
X149699822Y-80940159D01*
X149711804Y-80920168D01*
X149725688Y-80901448D01*
X149741340Y-80884178D01*
X149758610Y-80868526D01*
X149777330Y-80854642D01*
X149797321Y-80842660D01*
X149818391Y-80832695D01*
X149840335Y-80824843D01*
X149862944Y-80819179D01*
X149885999Y-80815760D01*
X149909278Y-80814616D01*
X150484278Y-80814616D01*
X150507557Y-80815760D01*
X150507557Y-80815760D01*
G37*
D13*
G04 #@! TD*
G04 #@! TO.P,C3,1*
G04 #@! TO.N,GND*
X150196778Y-81289616D03*
D11*
G04 #@! TO.N,GND*
G04 #@! TO.C,C4*
G36*
X147108779Y-90204144D02*
X147131834Y-90207563D01*
X147154443Y-90213227D01*
X147176387Y-90221079D01*
X147197457Y-90231044D01*
X147217448Y-90243026D01*
X147236168Y-90256910D01*
X147253438Y-90272562D01*
X147269090Y-90289832D01*
X147282974Y-90308552D01*
X147294956Y-90328543D01*
X147304921Y-90349613D01*
X147312773Y-90371557D01*
X147318437Y-90394166D01*
X147321856Y-90417221D01*
X147323000Y-90440500D01*
X147323000Y-90915500D01*
X147321856Y-90938779D01*
X147318437Y-90961834D01*
X147312773Y-90984443D01*
X147304921Y-91006387D01*
X147294956Y-91027457D01*
X147282974Y-91047448D01*
X147269090Y-91066168D01*
X147253438Y-91083438D01*
X147236168Y-91099090D01*
X147217448Y-91112974D01*
X147197457Y-91124956D01*
X147176387Y-91134921D01*
X147154443Y-91142773D01*
X147131834Y-91148437D01*
X147108779Y-91151856D01*
X147085500Y-91153000D01*
X146510500Y-91153000D01*
X146487221Y-91151856D01*
X146464166Y-91148437D01*
X146441557Y-91142773D01*
X146419613Y-91134921D01*
X146398543Y-91124956D01*
X146378552Y-91112974D01*
X146359832Y-91099090D01*
X146342562Y-91083438D01*
X146326910Y-91066168D01*
X146313026Y-91047448D01*
X146301044Y-91027457D01*
X146291079Y-91006387D01*
X146283227Y-90984443D01*
X146277563Y-90961834D01*
X146274144Y-90938779D01*
X146273000Y-90915500D01*
X146273000Y-90440500D01*
X146274144Y-90417221D01*
X146277563Y-90394166D01*
X146283227Y-90371557D01*
X146291079Y-90349613D01*
X146301044Y-90328543D01*
X146313026Y-90308552D01*
X146326910Y-90289832D01*
X146342562Y-90272562D01*
X146359832Y-90256910D01*
X146378552Y-90243026D01*
X146398543Y-90231044D01*
X146419613Y-90221079D01*
X146441557Y-90213227D01*
X146464166Y-90207563D01*
X146487221Y-90204144D01*
X146510500Y-90203000D01*
X147085500Y-90203000D01*
X147108779Y-90204144D01*
X147108779Y-90204144D01*
G37*
D13*
G04 #@! TD*
G04 #@! TO.P,C4,2*
G04 #@! TO.N,GND*
X146798000Y-90678000D03*
D11*
G04 #@! TO.N,Net-(C4-Pad1)*
G04 #@! TO.C,C4*
G36*
X145358779Y-90204144D02*
X145381834Y-90207563D01*
X145404443Y-90213227D01*
X145426387Y-90221079D01*
X145447457Y-90231044D01*
X145467448Y-90243026D01*
X145486168Y-90256910D01*
X145503438Y-90272562D01*
X145519090Y-90289832D01*
X145532974Y-90308552D01*
X145544956Y-90328543D01*
X145554921Y-90349613D01*
X145562773Y-90371557D01*
X145568437Y-90394166D01*
X145571856Y-90417221D01*
X145573000Y-90440500D01*
X145573000Y-90915500D01*
X145571856Y-90938779D01*
X145568437Y-90961834D01*
X145562773Y-90984443D01*
X145554921Y-91006387D01*
X145544956Y-91027457D01*
X145532974Y-91047448D01*
X145519090Y-91066168D01*
X145503438Y-91083438D01*
X145486168Y-91099090D01*
X145467448Y-91112974D01*
X145447457Y-91124956D01*
X145426387Y-91134921D01*
X145404443Y-91142773D01*
X145381834Y-91148437D01*
X145358779Y-91151856D01*
X145335500Y-91153000D01*
X144760500Y-91153000D01*
X144737221Y-91151856D01*
X144714166Y-91148437D01*
X144691557Y-91142773D01*
X144669613Y-91134921D01*
X144648543Y-91124956D01*
X144628552Y-91112974D01*
X144609832Y-91099090D01*
X144592562Y-91083438D01*
X144576910Y-91066168D01*
X144563026Y-91047448D01*
X144551044Y-91027457D01*
X144541079Y-91006387D01*
X144533227Y-90984443D01*
X144527563Y-90961834D01*
X144524144Y-90938779D01*
X144523000Y-90915500D01*
X144523000Y-90440500D01*
X144524144Y-90417221D01*
X144527563Y-90394166D01*
X144533227Y-90371557D01*
X144541079Y-90349613D01*
X144551044Y-90328543D01*
X144563026Y-90308552D01*
X144576910Y-90289832D01*
X144592562Y-90272562D01*
X144609832Y-90256910D01*
X144628552Y-90243026D01*
X144648543Y-90231044D01*
X144669613Y-90221079D01*
X144691557Y-90213227D01*
X144714166Y-90207563D01*
X144737221Y-90204144D01*
X144760500Y-90203000D01*
X145335500Y-90203000D01*
X145358779Y-90204144D01*
X145358779Y-90204144D01*
G37*
D13*
G04 #@! TD*
G04 #@! TO.P,C4,1*
G04 #@! TO.N,Net-(C4-Pad1)*
X145048000Y-90678000D03*
D11*
G04 #@! TO.N,Net-(C5-Pad2)*
G04 #@! TO.C,C5*
G36*
X152490734Y-93562882D02*
X152515002Y-93566482D01*
X152538801Y-93572443D01*
X152561900Y-93580708D01*
X152584079Y-93591198D01*
X152605122Y-93603810D01*
X152624828Y-93618425D01*
X152643006Y-93634901D01*
X152659482Y-93653079D01*
X152674097Y-93672785D01*
X152686709Y-93693828D01*
X152697199Y-93716007D01*
X152705464Y-93739106D01*
X152711425Y-93762905D01*
X152715025Y-93787173D01*
X152716229Y-93811677D01*
X152716229Y-94711679D01*
X152715025Y-94736183D01*
X152711425Y-94760451D01*
X152705464Y-94784250D01*
X152697199Y-94807349D01*
X152686709Y-94829528D01*
X152674097Y-94850571D01*
X152659482Y-94870277D01*
X152643006Y-94888455D01*
X152624828Y-94904931D01*
X152605122Y-94919546D01*
X152584079Y-94932158D01*
X152561900Y-94942648D01*
X152538801Y-94950913D01*
X152515002Y-94956874D01*
X152490734Y-94960474D01*
X152466230Y-94961678D01*
X151816228Y-94961678D01*
X151791724Y-94960474D01*
X151767456Y-94956874D01*
X151743657Y-94950913D01*
X151720558Y-94942648D01*
X151698379Y-94932158D01*
X151677336Y-94919546D01*
X151657630Y-94904931D01*
X151639452Y-94888455D01*
X151622976Y-94870277D01*
X151608361Y-94850571D01*
X151595749Y-94829528D01*
X151585259Y-94807349D01*
X151576994Y-94784250D01*
X151571033Y-94760451D01*
X151567433Y-94736183D01*
X151566229Y-94711679D01*
X151566229Y-93811677D01*
X151567433Y-93787173D01*
X151571033Y-93762905D01*
X151576994Y-93739106D01*
X151585259Y-93716007D01*
X151595749Y-93693828D01*
X151608361Y-93672785D01*
X151622976Y-93653079D01*
X151639452Y-93634901D01*
X151657630Y-93618425D01*
X151677336Y-93603810D01*
X151698379Y-93591198D01*
X151720558Y-93580708D01*
X151743657Y-93572443D01*
X151767456Y-93566482D01*
X151791724Y-93562882D01*
X151816228Y-93561678D01*
X152466230Y-93561678D01*
X152490734Y-93562882D01*
X152490734Y-93562882D01*
G37*
D12*
G04 #@! TD*
G04 #@! TO.P,C5,2*
G04 #@! TO.N,Net-(C5-Pad2)*
X152141229Y-94261678D03*
D11*
G04 #@! TO.N,GND*
G04 #@! TO.C,C5*
G36*
X150440734Y-93562882D02*
X150465002Y-93566482D01*
X150488801Y-93572443D01*
X150511900Y-93580708D01*
X150534079Y-93591198D01*
X150555122Y-93603810D01*
X150574828Y-93618425D01*
X150593006Y-93634901D01*
X150609482Y-93653079D01*
X150624097Y-93672785D01*
X150636709Y-93693828D01*
X150647199Y-93716007D01*
X150655464Y-93739106D01*
X150661425Y-93762905D01*
X150665025Y-93787173D01*
X150666229Y-93811677D01*
X150666229Y-94711679D01*
X150665025Y-94736183D01*
X150661425Y-94760451D01*
X150655464Y-94784250D01*
X150647199Y-94807349D01*
X150636709Y-94829528D01*
X150624097Y-94850571D01*
X150609482Y-94870277D01*
X150593006Y-94888455D01*
X150574828Y-94904931D01*
X150555122Y-94919546D01*
X150534079Y-94932158D01*
X150511900Y-94942648D01*
X150488801Y-94950913D01*
X150465002Y-94956874D01*
X150440734Y-94960474D01*
X150416230Y-94961678D01*
X149766228Y-94961678D01*
X149741724Y-94960474D01*
X149717456Y-94956874D01*
X149693657Y-94950913D01*
X149670558Y-94942648D01*
X149648379Y-94932158D01*
X149627336Y-94919546D01*
X149607630Y-94904931D01*
X149589452Y-94888455D01*
X149572976Y-94870277D01*
X149558361Y-94850571D01*
X149545749Y-94829528D01*
X149535259Y-94807349D01*
X149526994Y-94784250D01*
X149521033Y-94760451D01*
X149517433Y-94736183D01*
X149516229Y-94711679D01*
X149516229Y-93811677D01*
X149517433Y-93787173D01*
X149521033Y-93762905D01*
X149526994Y-93739106D01*
X149535259Y-93716007D01*
X149545749Y-93693828D01*
X149558361Y-93672785D01*
X149572976Y-93653079D01*
X149589452Y-93634901D01*
X149607630Y-93618425D01*
X149627336Y-93603810D01*
X149648379Y-93591198D01*
X149670558Y-93580708D01*
X149693657Y-93572443D01*
X149717456Y-93566482D01*
X149741724Y-93562882D01*
X149766228Y-93561678D01*
X150416230Y-93561678D01*
X150440734Y-93562882D01*
X150440734Y-93562882D01*
G37*
D12*
G04 #@! TD*
G04 #@! TO.P,C5,1*
G04 #@! TO.N,GND*
X150091229Y-94261678D03*
D11*
G04 #@! TO.N,Net-(C6-Pad1)*
G04 #@! TO.C,C6*
G36*
X140885779Y-115858144D02*
X140908834Y-115861563D01*
X140931443Y-115867227D01*
X140953387Y-115875079D01*
X140974457Y-115885044D01*
X140994448Y-115897026D01*
X141013168Y-115910910D01*
X141030438Y-115926562D01*
X141046090Y-115943832D01*
X141059974Y-115962552D01*
X141071956Y-115982543D01*
X141081921Y-116003613D01*
X141089773Y-116025557D01*
X141095437Y-116048166D01*
X141098856Y-116071221D01*
X141100000Y-116094500D01*
X141100000Y-116569500D01*
X141098856Y-116592779D01*
X141095437Y-116615834D01*
X141089773Y-116638443D01*
X141081921Y-116660387D01*
X141071956Y-116681457D01*
X141059974Y-116701448D01*
X141046090Y-116720168D01*
X141030438Y-116737438D01*
X141013168Y-116753090D01*
X140994448Y-116766974D01*
X140974457Y-116778956D01*
X140953387Y-116788921D01*
X140931443Y-116796773D01*
X140908834Y-116802437D01*
X140885779Y-116805856D01*
X140862500Y-116807000D01*
X140287500Y-116807000D01*
X140264221Y-116805856D01*
X140241166Y-116802437D01*
X140218557Y-116796773D01*
X140196613Y-116788921D01*
X140175543Y-116778956D01*
X140155552Y-116766974D01*
X140136832Y-116753090D01*
X140119562Y-116737438D01*
X140103910Y-116720168D01*
X140090026Y-116701448D01*
X140078044Y-116681457D01*
X140068079Y-116660387D01*
X140060227Y-116638443D01*
X140054563Y-116615834D01*
X140051144Y-116592779D01*
X140050000Y-116569500D01*
X140050000Y-116094500D01*
X140051144Y-116071221D01*
X140054563Y-116048166D01*
X140060227Y-116025557D01*
X140068079Y-116003613D01*
X140078044Y-115982543D01*
X140090026Y-115962552D01*
X140103910Y-115943832D01*
X140119562Y-115926562D01*
X140136832Y-115910910D01*
X140155552Y-115897026D01*
X140175543Y-115885044D01*
X140196613Y-115875079D01*
X140218557Y-115867227D01*
X140241166Y-115861563D01*
X140264221Y-115858144D01*
X140287500Y-115857000D01*
X140862500Y-115857000D01*
X140885779Y-115858144D01*
X140885779Y-115858144D01*
G37*
D13*
G04 #@! TD*
G04 #@! TO.P,C6,1*
G04 #@! TO.N,Net-(C6-Pad1)*
X140575000Y-116332000D03*
D11*
G04 #@! TO.N,Net-(C6-Pad2)*
G04 #@! TO.C,C6*
G36*
X139135779Y-115858144D02*
X139158834Y-115861563D01*
X139181443Y-115867227D01*
X139203387Y-115875079D01*
X139224457Y-115885044D01*
X139244448Y-115897026D01*
X139263168Y-115910910D01*
X139280438Y-115926562D01*
X139296090Y-115943832D01*
X139309974Y-115962552D01*
X139321956Y-115982543D01*
X139331921Y-116003613D01*
X139339773Y-116025557D01*
X139345437Y-116048166D01*
X139348856Y-116071221D01*
X139350000Y-116094500D01*
X139350000Y-116569500D01*
X139348856Y-116592779D01*
X139345437Y-116615834D01*
X139339773Y-116638443D01*
X139331921Y-116660387D01*
X139321956Y-116681457D01*
X139309974Y-116701448D01*
X139296090Y-116720168D01*
X139280438Y-116737438D01*
X139263168Y-116753090D01*
X139244448Y-116766974D01*
X139224457Y-116778956D01*
X139203387Y-116788921D01*
X139181443Y-116796773D01*
X139158834Y-116802437D01*
X139135779Y-116805856D01*
X139112500Y-116807000D01*
X138537500Y-116807000D01*
X138514221Y-116805856D01*
X138491166Y-116802437D01*
X138468557Y-116796773D01*
X138446613Y-116788921D01*
X138425543Y-116778956D01*
X138405552Y-116766974D01*
X138386832Y-116753090D01*
X138369562Y-116737438D01*
X138353910Y-116720168D01*
X138340026Y-116701448D01*
X138328044Y-116681457D01*
X138318079Y-116660387D01*
X138310227Y-116638443D01*
X138304563Y-116615834D01*
X138301144Y-116592779D01*
X138300000Y-116569500D01*
X138300000Y-116094500D01*
X138301144Y-116071221D01*
X138304563Y-116048166D01*
X138310227Y-116025557D01*
X138318079Y-116003613D01*
X138328044Y-115982543D01*
X138340026Y-115962552D01*
X138353910Y-115943832D01*
X138369562Y-115926562D01*
X138386832Y-115910910D01*
X138405552Y-115897026D01*
X138425543Y-115885044D01*
X138446613Y-115875079D01*
X138468557Y-115867227D01*
X138491166Y-115861563D01*
X138514221Y-115858144D01*
X138537500Y-115857000D01*
X139112500Y-115857000D01*
X139135779Y-115858144D01*
X139135779Y-115858144D01*
G37*
D13*
G04 #@! TD*
G04 #@! TO.P,C6,2*
G04 #@! TO.N,Net-(C6-Pad2)*
X138825000Y-116332000D03*
D11*
G04 #@! TO.N,GND*
G04 #@! TO.C,C7*
G36*
X150397068Y-90234362D02*
X150420123Y-90237781D01*
X150442732Y-90243445D01*
X150464676Y-90251297D01*
X150485746Y-90261262D01*
X150505737Y-90273244D01*
X150524457Y-90287128D01*
X150541727Y-90302780D01*
X150557379Y-90320050D01*
X150571263Y-90338770D01*
X150583245Y-90358761D01*
X150593210Y-90379831D01*
X150601062Y-90401775D01*
X150606726Y-90424384D01*
X150610145Y-90447439D01*
X150611289Y-90470718D01*
X150611289Y-90945718D01*
X150610145Y-90968997D01*
X150606726Y-90992052D01*
X150601062Y-91014661D01*
X150593210Y-91036605D01*
X150583245Y-91057675D01*
X150571263Y-91077666D01*
X150557379Y-91096386D01*
X150541727Y-91113656D01*
X150524457Y-91129308D01*
X150505737Y-91143192D01*
X150485746Y-91155174D01*
X150464676Y-91165139D01*
X150442732Y-91172991D01*
X150420123Y-91178655D01*
X150397068Y-91182074D01*
X150373789Y-91183218D01*
X149798789Y-91183218D01*
X149775510Y-91182074D01*
X149752455Y-91178655D01*
X149729846Y-91172991D01*
X149707902Y-91165139D01*
X149686832Y-91155174D01*
X149666841Y-91143192D01*
X149648121Y-91129308D01*
X149630851Y-91113656D01*
X149615199Y-91096386D01*
X149601315Y-91077666D01*
X149589333Y-91057675D01*
X149579368Y-91036605D01*
X149571516Y-91014661D01*
X149565852Y-90992052D01*
X149562433Y-90968997D01*
X149561289Y-90945718D01*
X149561289Y-90470718D01*
X149562433Y-90447439D01*
X149565852Y-90424384D01*
X149571516Y-90401775D01*
X149579368Y-90379831D01*
X149589333Y-90358761D01*
X149601315Y-90338770D01*
X149615199Y-90320050D01*
X149630851Y-90302780D01*
X149648121Y-90287128D01*
X149666841Y-90273244D01*
X149686832Y-90261262D01*
X149707902Y-90251297D01*
X149729846Y-90243445D01*
X149752455Y-90237781D01*
X149775510Y-90234362D01*
X149798789Y-90233218D01*
X150373789Y-90233218D01*
X150397068Y-90234362D01*
X150397068Y-90234362D01*
G37*
D13*
G04 #@! TD*
G04 #@! TO.P,C7,1*
G04 #@! TO.N,GND*
X150086289Y-90708218D03*
D11*
G04 #@! TO.N,Net-(C5-Pad2)*
G04 #@! TO.C,C7*
G36*
X152147068Y-90234362D02*
X152170123Y-90237781D01*
X152192732Y-90243445D01*
X152214676Y-90251297D01*
X152235746Y-90261262D01*
X152255737Y-90273244D01*
X152274457Y-90287128D01*
X152291727Y-90302780D01*
X152307379Y-90320050D01*
X152321263Y-90338770D01*
X152333245Y-90358761D01*
X152343210Y-90379831D01*
X152351062Y-90401775D01*
X152356726Y-90424384D01*
X152360145Y-90447439D01*
X152361289Y-90470718D01*
X152361289Y-90945718D01*
X152360145Y-90968997D01*
X152356726Y-90992052D01*
X152351062Y-91014661D01*
X152343210Y-91036605D01*
X152333245Y-91057675D01*
X152321263Y-91077666D01*
X152307379Y-91096386D01*
X152291727Y-91113656D01*
X152274457Y-91129308D01*
X152255737Y-91143192D01*
X152235746Y-91155174D01*
X152214676Y-91165139D01*
X152192732Y-91172991D01*
X152170123Y-91178655D01*
X152147068Y-91182074D01*
X152123789Y-91183218D01*
X151548789Y-91183218D01*
X151525510Y-91182074D01*
X151502455Y-91178655D01*
X151479846Y-91172991D01*
X151457902Y-91165139D01*
X151436832Y-91155174D01*
X151416841Y-91143192D01*
X151398121Y-91129308D01*
X151380851Y-91113656D01*
X151365199Y-91096386D01*
X151351315Y-91077666D01*
X151339333Y-91057675D01*
X151329368Y-91036605D01*
X151321516Y-91014661D01*
X151315852Y-90992052D01*
X151312433Y-90968997D01*
X151311289Y-90945718D01*
X151311289Y-90470718D01*
X151312433Y-90447439D01*
X151315852Y-90424384D01*
X151321516Y-90401775D01*
X151329368Y-90379831D01*
X151339333Y-90358761D01*
X151351315Y-90338770D01*
X151365199Y-90320050D01*
X151380851Y-90302780D01*
X151398121Y-90287128D01*
X151416841Y-90273244D01*
X151436832Y-90261262D01*
X151457902Y-90251297D01*
X151479846Y-90243445D01*
X151502455Y-90237781D01*
X151525510Y-90234362D01*
X151548789Y-90233218D01*
X152123789Y-90233218D01*
X152147068Y-90234362D01*
X152147068Y-90234362D01*
G37*
D13*
G04 #@! TD*
G04 #@! TO.P,C7,2*
G04 #@! TO.N,Net-(C5-Pad2)*
X151836289Y-90708218D03*
D11*
G04 #@! TO.N,Net-(C8-Pad2)*
G04 #@! TO.C,C8*
G36*
X152188779Y-108111144D02*
X152211834Y-108114563D01*
X152234443Y-108120227D01*
X152256387Y-108128079D01*
X152277457Y-108138044D01*
X152297448Y-108150026D01*
X152316168Y-108163910D01*
X152333438Y-108179562D01*
X152349090Y-108196832D01*
X152362974Y-108215552D01*
X152374956Y-108235543D01*
X152384921Y-108256613D01*
X152392773Y-108278557D01*
X152398437Y-108301166D01*
X152401856Y-108324221D01*
X152403000Y-108347500D01*
X152403000Y-108822500D01*
X152401856Y-108845779D01*
X152398437Y-108868834D01*
X152392773Y-108891443D01*
X152384921Y-108913387D01*
X152374956Y-108934457D01*
X152362974Y-108954448D01*
X152349090Y-108973168D01*
X152333438Y-108990438D01*
X152316168Y-109006090D01*
X152297448Y-109019974D01*
X152277457Y-109031956D01*
X152256387Y-109041921D01*
X152234443Y-109049773D01*
X152211834Y-109055437D01*
X152188779Y-109058856D01*
X152165500Y-109060000D01*
X151590500Y-109060000D01*
X151567221Y-109058856D01*
X151544166Y-109055437D01*
X151521557Y-109049773D01*
X151499613Y-109041921D01*
X151478543Y-109031956D01*
X151458552Y-109019974D01*
X151439832Y-109006090D01*
X151422562Y-108990438D01*
X151406910Y-108973168D01*
X151393026Y-108954448D01*
X151381044Y-108934457D01*
X151371079Y-108913387D01*
X151363227Y-108891443D01*
X151357563Y-108868834D01*
X151354144Y-108845779D01*
X151353000Y-108822500D01*
X151353000Y-108347500D01*
X151354144Y-108324221D01*
X151357563Y-108301166D01*
X151363227Y-108278557D01*
X151371079Y-108256613D01*
X151381044Y-108235543D01*
X151393026Y-108215552D01*
X151406910Y-108196832D01*
X151422562Y-108179562D01*
X151439832Y-108163910D01*
X151458552Y-108150026D01*
X151478543Y-108138044D01*
X151499613Y-108128079D01*
X151521557Y-108120227D01*
X151544166Y-108114563D01*
X151567221Y-108111144D01*
X151590500Y-108110000D01*
X152165500Y-108110000D01*
X152188779Y-108111144D01*
X152188779Y-108111144D01*
G37*
D13*
G04 #@! TD*
G04 #@! TO.P,C8,2*
G04 #@! TO.N,Net-(C8-Pad2)*
X151878000Y-108585000D03*
D11*
G04 #@! TO.N,GND*
G04 #@! TO.C,C8*
G36*
X150438779Y-108111144D02*
X150461834Y-108114563D01*
X150484443Y-108120227D01*
X150506387Y-108128079D01*
X150527457Y-108138044D01*
X150547448Y-108150026D01*
X150566168Y-108163910D01*
X150583438Y-108179562D01*
X150599090Y-108196832D01*
X150612974Y-108215552D01*
X150624956Y-108235543D01*
X150634921Y-108256613D01*
X150642773Y-108278557D01*
X150648437Y-108301166D01*
X150651856Y-108324221D01*
X150653000Y-108347500D01*
X150653000Y-108822500D01*
X150651856Y-108845779D01*
X150648437Y-108868834D01*
X150642773Y-108891443D01*
X150634921Y-108913387D01*
X150624956Y-108934457D01*
X150612974Y-108954448D01*
X150599090Y-108973168D01*
X150583438Y-108990438D01*
X150566168Y-109006090D01*
X150547448Y-109019974D01*
X150527457Y-109031956D01*
X150506387Y-109041921D01*
X150484443Y-109049773D01*
X150461834Y-109055437D01*
X150438779Y-109058856D01*
X150415500Y-109060000D01*
X149840500Y-109060000D01*
X149817221Y-109058856D01*
X149794166Y-109055437D01*
X149771557Y-109049773D01*
X149749613Y-109041921D01*
X149728543Y-109031956D01*
X149708552Y-109019974D01*
X149689832Y-109006090D01*
X149672562Y-108990438D01*
X149656910Y-108973168D01*
X149643026Y-108954448D01*
X149631044Y-108934457D01*
X149621079Y-108913387D01*
X149613227Y-108891443D01*
X149607563Y-108868834D01*
X149604144Y-108845779D01*
X149603000Y-108822500D01*
X149603000Y-108347500D01*
X149604144Y-108324221D01*
X149607563Y-108301166D01*
X149613227Y-108278557D01*
X149621079Y-108256613D01*
X149631044Y-108235543D01*
X149643026Y-108215552D01*
X149656910Y-108196832D01*
X149672562Y-108179562D01*
X149689832Y-108163910D01*
X149708552Y-108150026D01*
X149728543Y-108138044D01*
X149749613Y-108128079D01*
X149771557Y-108120227D01*
X149794166Y-108114563D01*
X149817221Y-108111144D01*
X149840500Y-108110000D01*
X150415500Y-108110000D01*
X150438779Y-108111144D01*
X150438779Y-108111144D01*
G37*
D13*
G04 #@! TD*
G04 #@! TO.P,C8,1*
G04 #@! TO.N,GND*
X150128000Y-108585000D03*
D11*
G04 #@! TO.N,GND*
G04 #@! TO.C,C9*
G36*
X150438779Y-104555144D02*
X150461834Y-104558563D01*
X150484443Y-104564227D01*
X150506387Y-104572079D01*
X150527457Y-104582044D01*
X150547448Y-104594026D01*
X150566168Y-104607910D01*
X150583438Y-104623562D01*
X150599090Y-104640832D01*
X150612974Y-104659552D01*
X150624956Y-104679543D01*
X150634921Y-104700613D01*
X150642773Y-104722557D01*
X150648437Y-104745166D01*
X150651856Y-104768221D01*
X150653000Y-104791500D01*
X150653000Y-105266500D01*
X150651856Y-105289779D01*
X150648437Y-105312834D01*
X150642773Y-105335443D01*
X150634921Y-105357387D01*
X150624956Y-105378457D01*
X150612974Y-105398448D01*
X150599090Y-105417168D01*
X150583438Y-105434438D01*
X150566168Y-105450090D01*
X150547448Y-105463974D01*
X150527457Y-105475956D01*
X150506387Y-105485921D01*
X150484443Y-105493773D01*
X150461834Y-105499437D01*
X150438779Y-105502856D01*
X150415500Y-105504000D01*
X149840500Y-105504000D01*
X149817221Y-105502856D01*
X149794166Y-105499437D01*
X149771557Y-105493773D01*
X149749613Y-105485921D01*
X149728543Y-105475956D01*
X149708552Y-105463974D01*
X149689832Y-105450090D01*
X149672562Y-105434438D01*
X149656910Y-105417168D01*
X149643026Y-105398448D01*
X149631044Y-105378457D01*
X149621079Y-105357387D01*
X149613227Y-105335443D01*
X149607563Y-105312834D01*
X149604144Y-105289779D01*
X149603000Y-105266500D01*
X149603000Y-104791500D01*
X149604144Y-104768221D01*
X149607563Y-104745166D01*
X149613227Y-104722557D01*
X149621079Y-104700613D01*
X149631044Y-104679543D01*
X149643026Y-104659552D01*
X149656910Y-104640832D01*
X149672562Y-104623562D01*
X149689832Y-104607910D01*
X149708552Y-104594026D01*
X149728543Y-104582044D01*
X149749613Y-104572079D01*
X149771557Y-104564227D01*
X149794166Y-104558563D01*
X149817221Y-104555144D01*
X149840500Y-104554000D01*
X150415500Y-104554000D01*
X150438779Y-104555144D01*
X150438779Y-104555144D01*
G37*
D13*
G04 #@! TD*
G04 #@! TO.P,C9,1*
G04 #@! TO.N,GND*
X150128000Y-105029000D03*
D11*
G04 #@! TO.N,Net-(C8-Pad2)*
G04 #@! TO.C,C9*
G36*
X152188779Y-104555144D02*
X152211834Y-104558563D01*
X152234443Y-104564227D01*
X152256387Y-104572079D01*
X152277457Y-104582044D01*
X152297448Y-104594026D01*
X152316168Y-104607910D01*
X152333438Y-104623562D01*
X152349090Y-104640832D01*
X152362974Y-104659552D01*
X152374956Y-104679543D01*
X152384921Y-104700613D01*
X152392773Y-104722557D01*
X152398437Y-104745166D01*
X152401856Y-104768221D01*
X152403000Y-104791500D01*
X152403000Y-105266500D01*
X152401856Y-105289779D01*
X152398437Y-105312834D01*
X152392773Y-105335443D01*
X152384921Y-105357387D01*
X152374956Y-105378457D01*
X152362974Y-105398448D01*
X152349090Y-105417168D01*
X152333438Y-105434438D01*
X152316168Y-105450090D01*
X152297448Y-105463974D01*
X152277457Y-105475956D01*
X152256387Y-105485921D01*
X152234443Y-105493773D01*
X152211834Y-105499437D01*
X152188779Y-105502856D01*
X152165500Y-105504000D01*
X151590500Y-105504000D01*
X151567221Y-105502856D01*
X151544166Y-105499437D01*
X151521557Y-105493773D01*
X151499613Y-105485921D01*
X151478543Y-105475956D01*
X151458552Y-105463974D01*
X151439832Y-105450090D01*
X151422562Y-105434438D01*
X151406910Y-105417168D01*
X151393026Y-105398448D01*
X151381044Y-105378457D01*
X151371079Y-105357387D01*
X151363227Y-105335443D01*
X151357563Y-105312834D01*
X151354144Y-105289779D01*
X151353000Y-105266500D01*
X151353000Y-104791500D01*
X151354144Y-104768221D01*
X151357563Y-104745166D01*
X151363227Y-104722557D01*
X151371079Y-104700613D01*
X151381044Y-104679543D01*
X151393026Y-104659552D01*
X151406910Y-104640832D01*
X151422562Y-104623562D01*
X151439832Y-104607910D01*
X151458552Y-104594026D01*
X151478543Y-104582044D01*
X151499613Y-104572079D01*
X151521557Y-104564227D01*
X151544166Y-104558563D01*
X151567221Y-104555144D01*
X151590500Y-104554000D01*
X152165500Y-104554000D01*
X152188779Y-104555144D01*
X152188779Y-104555144D01*
G37*
D13*
G04 #@! TD*
G04 #@! TO.P,C9,2*
G04 #@! TO.N,Net-(C8-Pad2)*
X151878000Y-105029000D03*
D11*
G04 #@! TO.N,Net-(C10-Pad2)*
G04 #@! TO.C,C10*
G36*
X160725779Y-115700664D02*
X160748834Y-115704083D01*
X160771443Y-115709747D01*
X160793387Y-115717599D01*
X160814457Y-115727564D01*
X160834448Y-115739546D01*
X160853168Y-115753430D01*
X160870438Y-115769082D01*
X160886090Y-115786352D01*
X160899974Y-115805072D01*
X160911956Y-115825063D01*
X160921921Y-115846133D01*
X160929773Y-115868077D01*
X160935437Y-115890686D01*
X160938856Y-115913741D01*
X160940000Y-115937020D01*
X160940000Y-116412020D01*
X160938856Y-116435299D01*
X160935437Y-116458354D01*
X160929773Y-116480963D01*
X160921921Y-116502907D01*
X160911956Y-116523977D01*
X160899974Y-116543968D01*
X160886090Y-116562688D01*
X160870438Y-116579958D01*
X160853168Y-116595610D01*
X160834448Y-116609494D01*
X160814457Y-116621476D01*
X160793387Y-116631441D01*
X160771443Y-116639293D01*
X160748834Y-116644957D01*
X160725779Y-116648376D01*
X160702500Y-116649520D01*
X160127500Y-116649520D01*
X160104221Y-116648376D01*
X160081166Y-116644957D01*
X160058557Y-116639293D01*
X160036613Y-116631441D01*
X160015543Y-116621476D01*
X159995552Y-116609494D01*
X159976832Y-116595610D01*
X159959562Y-116579958D01*
X159943910Y-116562688D01*
X159930026Y-116543968D01*
X159918044Y-116523977D01*
X159908079Y-116502907D01*
X159900227Y-116480963D01*
X159894563Y-116458354D01*
X159891144Y-116435299D01*
X159890000Y-116412020D01*
X159890000Y-115937020D01*
X159891144Y-115913741D01*
X159894563Y-115890686D01*
X159900227Y-115868077D01*
X159908079Y-115846133D01*
X159918044Y-115825063D01*
X159930026Y-115805072D01*
X159943910Y-115786352D01*
X159959562Y-115769082D01*
X159976832Y-115753430D01*
X159995552Y-115739546D01*
X160015543Y-115727564D01*
X160036613Y-115717599D01*
X160058557Y-115709747D01*
X160081166Y-115704083D01*
X160104221Y-115700664D01*
X160127500Y-115699520D01*
X160702500Y-115699520D01*
X160725779Y-115700664D01*
X160725779Y-115700664D01*
G37*
D13*
G04 #@! TD*
G04 #@! TO.P,C10,2*
G04 #@! TO.N,Net-(C10-Pad2)*
X160415000Y-116174520D03*
D11*
G04 #@! TO.N,Net-(C10-Pad1)*
G04 #@! TO.C,C10*
G36*
X162475779Y-115700664D02*
X162498834Y-115704083D01*
X162521443Y-115709747D01*
X162543387Y-115717599D01*
X162564457Y-115727564D01*
X162584448Y-115739546D01*
X162603168Y-115753430D01*
X162620438Y-115769082D01*
X162636090Y-115786352D01*
X162649974Y-115805072D01*
X162661956Y-115825063D01*
X162671921Y-115846133D01*
X162679773Y-115868077D01*
X162685437Y-115890686D01*
X162688856Y-115913741D01*
X162690000Y-115937020D01*
X162690000Y-116412020D01*
X162688856Y-116435299D01*
X162685437Y-116458354D01*
X162679773Y-116480963D01*
X162671921Y-116502907D01*
X162661956Y-116523977D01*
X162649974Y-116543968D01*
X162636090Y-116562688D01*
X162620438Y-116579958D01*
X162603168Y-116595610D01*
X162584448Y-116609494D01*
X162564457Y-116621476D01*
X162543387Y-116631441D01*
X162521443Y-116639293D01*
X162498834Y-116644957D01*
X162475779Y-116648376D01*
X162452500Y-116649520D01*
X161877500Y-116649520D01*
X161854221Y-116648376D01*
X161831166Y-116644957D01*
X161808557Y-116639293D01*
X161786613Y-116631441D01*
X161765543Y-116621476D01*
X161745552Y-116609494D01*
X161726832Y-116595610D01*
X161709562Y-116579958D01*
X161693910Y-116562688D01*
X161680026Y-116543968D01*
X161668044Y-116523977D01*
X161658079Y-116502907D01*
X161650227Y-116480963D01*
X161644563Y-116458354D01*
X161641144Y-116435299D01*
X161640000Y-116412020D01*
X161640000Y-115937020D01*
X161641144Y-115913741D01*
X161644563Y-115890686D01*
X161650227Y-115868077D01*
X161658079Y-115846133D01*
X161668044Y-115825063D01*
X161680026Y-115805072D01*
X161693910Y-115786352D01*
X161709562Y-115769082D01*
X161726832Y-115753430D01*
X161745552Y-115739546D01*
X161765543Y-115727564D01*
X161786613Y-115717599D01*
X161808557Y-115709747D01*
X161831166Y-115704083D01*
X161854221Y-115700664D01*
X161877500Y-115699520D01*
X162452500Y-115699520D01*
X162475779Y-115700664D01*
X162475779Y-115700664D01*
G37*
D13*
G04 #@! TD*
G04 #@! TO.P,C10,1*
G04 #@! TO.N,Net-(C10-Pad1)*
X162165000Y-116174520D03*
D11*
G04 #@! TO.N,GND*
G04 #@! TO.C,D1*
G36*
X163201779Y-65911144D02*
X163224834Y-65914563D01*
X163247443Y-65920227D01*
X163269387Y-65928079D01*
X163290457Y-65938044D01*
X163310448Y-65950026D01*
X163329168Y-65963910D01*
X163346438Y-65979562D01*
X163362090Y-65996832D01*
X163375974Y-66015552D01*
X163387956Y-66035543D01*
X163397921Y-66056613D01*
X163405773Y-66078557D01*
X163411437Y-66101166D01*
X163414856Y-66124221D01*
X163416000Y-66147500D01*
X163416000Y-66722500D01*
X163414856Y-66745779D01*
X163411437Y-66768834D01*
X163405773Y-66791443D01*
X163397921Y-66813387D01*
X163387956Y-66834457D01*
X163375974Y-66854448D01*
X163362090Y-66873168D01*
X163346438Y-66890438D01*
X163329168Y-66906090D01*
X163310448Y-66919974D01*
X163290457Y-66931956D01*
X163269387Y-66941921D01*
X163247443Y-66949773D01*
X163224834Y-66955437D01*
X163201779Y-66958856D01*
X163178500Y-66960000D01*
X162703500Y-66960000D01*
X162680221Y-66958856D01*
X162657166Y-66955437D01*
X162634557Y-66949773D01*
X162612613Y-66941921D01*
X162591543Y-66931956D01*
X162571552Y-66919974D01*
X162552832Y-66906090D01*
X162535562Y-66890438D01*
X162519910Y-66873168D01*
X162506026Y-66854448D01*
X162494044Y-66834457D01*
X162484079Y-66813387D01*
X162476227Y-66791443D01*
X162470563Y-66768834D01*
X162467144Y-66745779D01*
X162466000Y-66722500D01*
X162466000Y-66147500D01*
X162467144Y-66124221D01*
X162470563Y-66101166D01*
X162476227Y-66078557D01*
X162484079Y-66056613D01*
X162494044Y-66035543D01*
X162506026Y-66015552D01*
X162519910Y-65996832D01*
X162535562Y-65979562D01*
X162552832Y-65963910D01*
X162571552Y-65950026D01*
X162591543Y-65938044D01*
X162612613Y-65928079D01*
X162634557Y-65920227D01*
X162657166Y-65914563D01*
X162680221Y-65911144D01*
X162703500Y-65910000D01*
X163178500Y-65910000D01*
X163201779Y-65911144D01*
X163201779Y-65911144D01*
G37*
D13*
G04 #@! TD*
G04 #@! TO.P,D1,1*
G04 #@! TO.N,GND*
X162941000Y-66435000D03*
D11*
G04 #@! TO.N,Net-(D1-Pad2)*
G04 #@! TO.C,D1*
G36*
X163201779Y-67661144D02*
X163224834Y-67664563D01*
X163247443Y-67670227D01*
X163269387Y-67678079D01*
X163290457Y-67688044D01*
X163310448Y-67700026D01*
X163329168Y-67713910D01*
X163346438Y-67729562D01*
X163362090Y-67746832D01*
X163375974Y-67765552D01*
X163387956Y-67785543D01*
X163397921Y-67806613D01*
X163405773Y-67828557D01*
X163411437Y-67851166D01*
X163414856Y-67874221D01*
X163416000Y-67897500D01*
X163416000Y-68472500D01*
X163414856Y-68495779D01*
X163411437Y-68518834D01*
X163405773Y-68541443D01*
X163397921Y-68563387D01*
X163387956Y-68584457D01*
X163375974Y-68604448D01*
X163362090Y-68623168D01*
X163346438Y-68640438D01*
X163329168Y-68656090D01*
X163310448Y-68669974D01*
X163290457Y-68681956D01*
X163269387Y-68691921D01*
X163247443Y-68699773D01*
X163224834Y-68705437D01*
X163201779Y-68708856D01*
X163178500Y-68710000D01*
X162703500Y-68710000D01*
X162680221Y-68708856D01*
X162657166Y-68705437D01*
X162634557Y-68699773D01*
X162612613Y-68691921D01*
X162591543Y-68681956D01*
X162571552Y-68669974D01*
X162552832Y-68656090D01*
X162535562Y-68640438D01*
X162519910Y-68623168D01*
X162506026Y-68604448D01*
X162494044Y-68584457D01*
X162484079Y-68563387D01*
X162476227Y-68541443D01*
X162470563Y-68518834D01*
X162467144Y-68495779D01*
X162466000Y-68472500D01*
X162466000Y-67897500D01*
X162467144Y-67874221D01*
X162470563Y-67851166D01*
X162476227Y-67828557D01*
X162484079Y-67806613D01*
X162494044Y-67785543D01*
X162506026Y-67765552D01*
X162519910Y-67746832D01*
X162535562Y-67729562D01*
X162552832Y-67713910D01*
X162571552Y-67700026D01*
X162591543Y-67688044D01*
X162612613Y-67678079D01*
X162634557Y-67670227D01*
X162657166Y-67664563D01*
X162680221Y-67661144D01*
X162703500Y-67660000D01*
X163178500Y-67660000D01*
X163201779Y-67661144D01*
X163201779Y-67661144D01*
G37*
D13*
G04 #@! TD*
G04 #@! TO.P,D1,2*
G04 #@! TO.N,Net-(D1-Pad2)*
X162941000Y-68185000D03*
D14*
G04 #@! TO.P,J1,1*
G04 #@! TO.N,Net-(C1-Pad2)*
X153494738Y-72018596D03*
G04 #@! TO.P,J1,2*
G04 #@! TO.N,N/C*
X152694738Y-72018596D03*
G04 #@! TO.P,J1,3*
X151894738Y-72018596D03*
G04 #@! TO.P,J1,4*
X151094738Y-72018596D03*
G04 #@! TO.P,J1,5*
G04 #@! TO.N,GND*
X150294738Y-72018596D03*
D15*
G04 #@! TO.P,J1,6*
X156344738Y-71918596D03*
X156344738Y-66468596D03*
X147444738Y-71918596D03*
X147444738Y-66468596D03*
G04 #@! TD*
D16*
G04 #@! TO.N,GND*
G04 #@! TO.C,J2*
X133858000Y-120712000D03*
X133858000Y-111952000D03*
D17*
X134308000Y-120712000D03*
X134308000Y-111952000D03*
D18*
G04 #@! TD*
G04 #@! TO.P,J2,2*
G04 #@! TO.N,GND*
X130868000Y-120712000D03*
G04 #@! TO.P,J2,2*
G04 #@! TO.N,GND*
X130868000Y-111952000D03*
D19*
G04 #@! TO.P,J2,1*
G04 #@! TO.N,Net-(C6-Pad2)*
X130868000Y-116332000D03*
G04 #@! TD*
G04 #@! TO.P,J3,1*
G04 #@! TO.N,Net-(C10-Pad1)*
X169270680Y-116047520D03*
D18*
G04 #@! TO.P,J3,2*
G04 #@! TO.N,GND*
X169270680Y-120427520D03*
X169270680Y-111667520D03*
D17*
G04 #@! TD*
G04 #@! TO.N,GND*
G04 #@! TO.C,J3*
X165830680Y-120427520D03*
G04 #@! TO.N,GND*
G04 #@! TO.C,J3*
X165830680Y-111667520D03*
D16*
X166280680Y-120427520D03*
X166280680Y-111667520D03*
G04 #@! TD*
D11*
G04 #@! TO.N,Net-(C8-Pad2)*
G04 #@! TO.C,L1*
G36*
X152660779Y-112393144D02*
X152683834Y-112396563D01*
X152706443Y-112402227D01*
X152728387Y-112410079D01*
X152749457Y-112420044D01*
X152769448Y-112432026D01*
X152788168Y-112445910D01*
X152805438Y-112461562D01*
X152821090Y-112478832D01*
X152834974Y-112497552D01*
X152846956Y-112517543D01*
X152856921Y-112538613D01*
X152864773Y-112560557D01*
X152870437Y-112583166D01*
X152873856Y-112606221D01*
X152875000Y-112629500D01*
X152875000Y-113204500D01*
X152873856Y-113227779D01*
X152870437Y-113250834D01*
X152864773Y-113273443D01*
X152856921Y-113295387D01*
X152846956Y-113316457D01*
X152834974Y-113336448D01*
X152821090Y-113355168D01*
X152805438Y-113372438D01*
X152788168Y-113388090D01*
X152769448Y-113401974D01*
X152749457Y-113413956D01*
X152728387Y-113423921D01*
X152706443Y-113431773D01*
X152683834Y-113437437D01*
X152660779Y-113440856D01*
X152637500Y-113442000D01*
X152162500Y-113442000D01*
X152139221Y-113440856D01*
X152116166Y-113437437D01*
X152093557Y-113431773D01*
X152071613Y-113423921D01*
X152050543Y-113413956D01*
X152030552Y-113401974D01*
X152011832Y-113388090D01*
X151994562Y-113372438D01*
X151978910Y-113355168D01*
X151965026Y-113336448D01*
X151953044Y-113316457D01*
X151943079Y-113295387D01*
X151935227Y-113273443D01*
X151929563Y-113250834D01*
X151926144Y-113227779D01*
X151925000Y-113204500D01*
X151925000Y-112629500D01*
X151926144Y-112606221D01*
X151929563Y-112583166D01*
X151935227Y-112560557D01*
X151943079Y-112538613D01*
X151953044Y-112517543D01*
X151965026Y-112497552D01*
X151978910Y-112478832D01*
X151994562Y-112461562D01*
X152011832Y-112445910D01*
X152030552Y-112432026D01*
X152050543Y-112420044D01*
X152071613Y-112410079D01*
X152093557Y-112402227D01*
X152116166Y-112396563D01*
X152139221Y-112393144D01*
X152162500Y-112392000D01*
X152637500Y-112392000D01*
X152660779Y-112393144D01*
X152660779Y-112393144D01*
G37*
D13*
G04 #@! TD*
G04 #@! TO.P,L1,1*
G04 #@! TO.N,Net-(C8-Pad2)*
X152400000Y-112917000D03*
D11*
G04 #@! TO.N,Net-(C10-Pad2)*
G04 #@! TO.C,L1*
G36*
X152660779Y-114143144D02*
X152683834Y-114146563D01*
X152706443Y-114152227D01*
X152728387Y-114160079D01*
X152749457Y-114170044D01*
X152769448Y-114182026D01*
X152788168Y-114195910D01*
X152805438Y-114211562D01*
X152821090Y-114228832D01*
X152834974Y-114247552D01*
X152846956Y-114267543D01*
X152856921Y-114288613D01*
X152864773Y-114310557D01*
X152870437Y-114333166D01*
X152873856Y-114356221D01*
X152875000Y-114379500D01*
X152875000Y-114954500D01*
X152873856Y-114977779D01*
X152870437Y-115000834D01*
X152864773Y-115023443D01*
X152856921Y-115045387D01*
X152846956Y-115066457D01*
X152834974Y-115086448D01*
X152821090Y-115105168D01*
X152805438Y-115122438D01*
X152788168Y-115138090D01*
X152769448Y-115151974D01*
X152749457Y-115163956D01*
X152728387Y-115173921D01*
X152706443Y-115181773D01*
X152683834Y-115187437D01*
X152660779Y-115190856D01*
X152637500Y-115192000D01*
X152162500Y-115192000D01*
X152139221Y-115190856D01*
X152116166Y-115187437D01*
X152093557Y-115181773D01*
X152071613Y-115173921D01*
X152050543Y-115163956D01*
X152030552Y-115151974D01*
X152011832Y-115138090D01*
X151994562Y-115122438D01*
X151978910Y-115105168D01*
X151965026Y-115086448D01*
X151953044Y-115066457D01*
X151943079Y-115045387D01*
X151935227Y-115023443D01*
X151929563Y-115000834D01*
X151926144Y-114977779D01*
X151925000Y-114954500D01*
X151925000Y-114379500D01*
X151926144Y-114356221D01*
X151929563Y-114333166D01*
X151935227Y-114310557D01*
X151943079Y-114288613D01*
X151953044Y-114267543D01*
X151965026Y-114247552D01*
X151978910Y-114228832D01*
X151994562Y-114211562D01*
X152011832Y-114195910D01*
X152030552Y-114182026D01*
X152050543Y-114170044D01*
X152071613Y-114160079D01*
X152093557Y-114152227D01*
X152116166Y-114146563D01*
X152139221Y-114143144D01*
X152162500Y-114142000D01*
X152637500Y-114142000D01*
X152660779Y-114143144D01*
X152660779Y-114143144D01*
G37*
D13*
G04 #@! TD*
G04 #@! TO.P,L1,2*
G04 #@! TO.N,Net-(C10-Pad2)*
X152400000Y-114667000D03*
D11*
G04 #@! TO.N,Net-(C1-Pad2)*
G04 #@! TO.C,R1*
G36*
X144342779Y-80933144D02*
X144365834Y-80936563D01*
X144388443Y-80942227D01*
X144410387Y-80950079D01*
X144431457Y-80960044D01*
X144451448Y-80972026D01*
X144470168Y-80985910D01*
X144487438Y-81001562D01*
X144503090Y-81018832D01*
X144516974Y-81037552D01*
X144528956Y-81057543D01*
X144538921Y-81078613D01*
X144546773Y-81100557D01*
X144552437Y-81123166D01*
X144555856Y-81146221D01*
X144557000Y-81169500D01*
X144557000Y-81644500D01*
X144555856Y-81667779D01*
X144552437Y-81690834D01*
X144546773Y-81713443D01*
X144538921Y-81735387D01*
X144528956Y-81756457D01*
X144516974Y-81776448D01*
X144503090Y-81795168D01*
X144487438Y-81812438D01*
X144470168Y-81828090D01*
X144451448Y-81841974D01*
X144431457Y-81853956D01*
X144410387Y-81863921D01*
X144388443Y-81871773D01*
X144365834Y-81877437D01*
X144342779Y-81880856D01*
X144319500Y-81882000D01*
X143744500Y-81882000D01*
X143721221Y-81880856D01*
X143698166Y-81877437D01*
X143675557Y-81871773D01*
X143653613Y-81863921D01*
X143632543Y-81853956D01*
X143612552Y-81841974D01*
X143593832Y-81828090D01*
X143576562Y-81812438D01*
X143560910Y-81795168D01*
X143547026Y-81776448D01*
X143535044Y-81756457D01*
X143525079Y-81735387D01*
X143517227Y-81713443D01*
X143511563Y-81690834D01*
X143508144Y-81667779D01*
X143507000Y-81644500D01*
X143507000Y-81169500D01*
X143508144Y-81146221D01*
X143511563Y-81123166D01*
X143517227Y-81100557D01*
X143525079Y-81078613D01*
X143535044Y-81057543D01*
X143547026Y-81037552D01*
X143560910Y-81018832D01*
X143576562Y-81001562D01*
X143593832Y-80985910D01*
X143612552Y-80972026D01*
X143632543Y-80960044D01*
X143653613Y-80950079D01*
X143675557Y-80942227D01*
X143698166Y-80936563D01*
X143721221Y-80933144D01*
X143744500Y-80932000D01*
X144319500Y-80932000D01*
X144342779Y-80933144D01*
X144342779Y-80933144D01*
G37*
D13*
G04 #@! TD*
G04 #@! TO.P,R1,2*
G04 #@! TO.N,Net-(C1-Pad2)*
X144032000Y-81407000D03*
D11*
G04 #@! TO.N,Net-(C2-Pad1)*
G04 #@! TO.C,R1*
G36*
X146092779Y-80933144D02*
X146115834Y-80936563D01*
X146138443Y-80942227D01*
X146160387Y-80950079D01*
X146181457Y-80960044D01*
X146201448Y-80972026D01*
X146220168Y-80985910D01*
X146237438Y-81001562D01*
X146253090Y-81018832D01*
X146266974Y-81037552D01*
X146278956Y-81057543D01*
X146288921Y-81078613D01*
X146296773Y-81100557D01*
X146302437Y-81123166D01*
X146305856Y-81146221D01*
X146307000Y-81169500D01*
X146307000Y-81644500D01*
X146305856Y-81667779D01*
X146302437Y-81690834D01*
X146296773Y-81713443D01*
X146288921Y-81735387D01*
X146278956Y-81756457D01*
X146266974Y-81776448D01*
X146253090Y-81795168D01*
X146237438Y-81812438D01*
X146220168Y-81828090D01*
X146201448Y-81841974D01*
X146181457Y-81853956D01*
X146160387Y-81863921D01*
X146138443Y-81871773D01*
X146115834Y-81877437D01*
X146092779Y-81880856D01*
X146069500Y-81882000D01*
X145494500Y-81882000D01*
X145471221Y-81880856D01*
X145448166Y-81877437D01*
X145425557Y-81871773D01*
X145403613Y-81863921D01*
X145382543Y-81853956D01*
X145362552Y-81841974D01*
X145343832Y-81828090D01*
X145326562Y-81812438D01*
X145310910Y-81795168D01*
X145297026Y-81776448D01*
X145285044Y-81756457D01*
X145275079Y-81735387D01*
X145267227Y-81713443D01*
X145261563Y-81690834D01*
X145258144Y-81667779D01*
X145257000Y-81644500D01*
X145257000Y-81169500D01*
X145258144Y-81146221D01*
X145261563Y-81123166D01*
X145267227Y-81100557D01*
X145275079Y-81078613D01*
X145285044Y-81057543D01*
X145297026Y-81037552D01*
X145310910Y-81018832D01*
X145326562Y-81001562D01*
X145343832Y-80985910D01*
X145362552Y-80972026D01*
X145382543Y-80960044D01*
X145403613Y-80950079D01*
X145425557Y-80942227D01*
X145448166Y-80936563D01*
X145471221Y-80933144D01*
X145494500Y-80932000D01*
X146069500Y-80932000D01*
X146092779Y-80933144D01*
X146092779Y-80933144D01*
G37*
D13*
G04 #@! TD*
G04 #@! TO.P,R1,1*
G04 #@! TO.N,Net-(C2-Pad1)*
X145782000Y-81407000D03*
D11*
G04 #@! TO.N,Net-(C1-Pad2)*
G04 #@! TO.C,R2*
G36*
X159709779Y-76742144D02*
X159732834Y-76745563D01*
X159755443Y-76751227D01*
X159777387Y-76759079D01*
X159798457Y-76769044D01*
X159818448Y-76781026D01*
X159837168Y-76794910D01*
X159854438Y-76810562D01*
X159870090Y-76827832D01*
X159883974Y-76846552D01*
X159895956Y-76866543D01*
X159905921Y-76887613D01*
X159913773Y-76909557D01*
X159919437Y-76932166D01*
X159922856Y-76955221D01*
X159924000Y-76978500D01*
X159924000Y-77453500D01*
X159922856Y-77476779D01*
X159919437Y-77499834D01*
X159913773Y-77522443D01*
X159905921Y-77544387D01*
X159895956Y-77565457D01*
X159883974Y-77585448D01*
X159870090Y-77604168D01*
X159854438Y-77621438D01*
X159837168Y-77637090D01*
X159818448Y-77650974D01*
X159798457Y-77662956D01*
X159777387Y-77672921D01*
X159755443Y-77680773D01*
X159732834Y-77686437D01*
X159709779Y-77689856D01*
X159686500Y-77691000D01*
X159111500Y-77691000D01*
X159088221Y-77689856D01*
X159065166Y-77686437D01*
X159042557Y-77680773D01*
X159020613Y-77672921D01*
X158999543Y-77662956D01*
X158979552Y-77650974D01*
X158960832Y-77637090D01*
X158943562Y-77621438D01*
X158927910Y-77604168D01*
X158914026Y-77585448D01*
X158902044Y-77565457D01*
X158892079Y-77544387D01*
X158884227Y-77522443D01*
X158878563Y-77499834D01*
X158875144Y-77476779D01*
X158874000Y-77453500D01*
X158874000Y-76978500D01*
X158875144Y-76955221D01*
X158878563Y-76932166D01*
X158884227Y-76909557D01*
X158892079Y-76887613D01*
X158902044Y-76866543D01*
X158914026Y-76846552D01*
X158927910Y-76827832D01*
X158943562Y-76810562D01*
X158960832Y-76794910D01*
X158979552Y-76781026D01*
X158999543Y-76769044D01*
X159020613Y-76759079D01*
X159042557Y-76751227D01*
X159065166Y-76745563D01*
X159088221Y-76742144D01*
X159111500Y-76741000D01*
X159686500Y-76741000D01*
X159709779Y-76742144D01*
X159709779Y-76742144D01*
G37*
D13*
G04 #@! TD*
G04 #@! TO.P,R2,1*
G04 #@! TO.N,Net-(C1-Pad2)*
X159399000Y-77216000D03*
D11*
G04 #@! TO.N,Net-(D1-Pad2)*
G04 #@! TO.C,R2*
G36*
X161459779Y-76742144D02*
X161482834Y-76745563D01*
X161505443Y-76751227D01*
X161527387Y-76759079D01*
X161548457Y-76769044D01*
X161568448Y-76781026D01*
X161587168Y-76794910D01*
X161604438Y-76810562D01*
X161620090Y-76827832D01*
X161633974Y-76846552D01*
X161645956Y-76866543D01*
X161655921Y-76887613D01*
X161663773Y-76909557D01*
X161669437Y-76932166D01*
X161672856Y-76955221D01*
X161674000Y-76978500D01*
X161674000Y-77453500D01*
X161672856Y-77476779D01*
X161669437Y-77499834D01*
X161663773Y-77522443D01*
X161655921Y-77544387D01*
X161645956Y-77565457D01*
X161633974Y-77585448D01*
X161620090Y-77604168D01*
X161604438Y-77621438D01*
X161587168Y-77637090D01*
X161568448Y-77650974D01*
X161548457Y-77662956D01*
X161527387Y-77672921D01*
X161505443Y-77680773D01*
X161482834Y-77686437D01*
X161459779Y-77689856D01*
X161436500Y-77691000D01*
X160861500Y-77691000D01*
X160838221Y-77689856D01*
X160815166Y-77686437D01*
X160792557Y-77680773D01*
X160770613Y-77672921D01*
X160749543Y-77662956D01*
X160729552Y-77650974D01*
X160710832Y-77637090D01*
X160693562Y-77621438D01*
X160677910Y-77604168D01*
X160664026Y-77585448D01*
X160652044Y-77565457D01*
X160642079Y-77544387D01*
X160634227Y-77522443D01*
X160628563Y-77499834D01*
X160625144Y-77476779D01*
X160624000Y-77453500D01*
X160624000Y-76978500D01*
X160625144Y-76955221D01*
X160628563Y-76932166D01*
X160634227Y-76909557D01*
X160642079Y-76887613D01*
X160652044Y-76866543D01*
X160664026Y-76846552D01*
X160677910Y-76827832D01*
X160693562Y-76810562D01*
X160710832Y-76794910D01*
X160729552Y-76781026D01*
X160749543Y-76769044D01*
X160770613Y-76759079D01*
X160792557Y-76751227D01*
X160815166Y-76745563D01*
X160838221Y-76742144D01*
X160861500Y-76741000D01*
X161436500Y-76741000D01*
X161459779Y-76742144D01*
X161459779Y-76742144D01*
G37*
D13*
G04 #@! TD*
G04 #@! TO.P,R2,2*
G04 #@! TO.N,Net-(D1-Pad2)*
X161149000Y-77216000D03*
D20*
G04 #@! TO.P,U1,1*
G04 #@! TO.N,Net-(C1-Pad2)*
X151191000Y-84822576D03*
G04 #@! TO.P,U1,2*
G04 #@! TO.N,GND*
X150241000Y-84822576D03*
G04 #@! TO.P,U1,3*
G04 #@! TO.N,Net-(C2-Pad1)*
X149291000Y-84822576D03*
G04 #@! TO.P,U1,4*
G04 #@! TO.N,Net-(C4-Pad1)*
X149291000Y-87022576D03*
G04 #@! TO.P,U1,5*
G04 #@! TO.N,Net-(C5-Pad2)*
X151191000Y-87022576D03*
G04 #@! TD*
D11*
G04 #@! TO.N,Net-(C5-Pad2)*
G04 #@! TO.C,R3*
G36*
X152660779Y-99312144D02*
X152683834Y-99315563D01*
X152706443Y-99321227D01*
X152728387Y-99329079D01*
X152749457Y-99339044D01*
X152769448Y-99351026D01*
X152788168Y-99364910D01*
X152805438Y-99380562D01*
X152821090Y-99397832D01*
X152834974Y-99416552D01*
X152846956Y-99436543D01*
X152856921Y-99457613D01*
X152864773Y-99479557D01*
X152870437Y-99502166D01*
X152873856Y-99525221D01*
X152875000Y-99548500D01*
X152875000Y-100123500D01*
X152873856Y-100146779D01*
X152870437Y-100169834D01*
X152864773Y-100192443D01*
X152856921Y-100214387D01*
X152846956Y-100235457D01*
X152834974Y-100255448D01*
X152821090Y-100274168D01*
X152805438Y-100291438D01*
X152788168Y-100307090D01*
X152769448Y-100320974D01*
X152749457Y-100332956D01*
X152728387Y-100342921D01*
X152706443Y-100350773D01*
X152683834Y-100356437D01*
X152660779Y-100359856D01*
X152637500Y-100361000D01*
X152162500Y-100361000D01*
X152139221Y-100359856D01*
X152116166Y-100356437D01*
X152093557Y-100350773D01*
X152071613Y-100342921D01*
X152050543Y-100332956D01*
X152030552Y-100320974D01*
X152011832Y-100307090D01*
X151994562Y-100291438D01*
X151978910Y-100274168D01*
X151965026Y-100255448D01*
X151953044Y-100235457D01*
X151943079Y-100214387D01*
X151935227Y-100192443D01*
X151929563Y-100169834D01*
X151926144Y-100146779D01*
X151925000Y-100123500D01*
X151925000Y-99548500D01*
X151926144Y-99525221D01*
X151929563Y-99502166D01*
X151935227Y-99479557D01*
X151943079Y-99457613D01*
X151953044Y-99436543D01*
X151965026Y-99416552D01*
X151978910Y-99397832D01*
X151994562Y-99380562D01*
X152011832Y-99364910D01*
X152030552Y-99351026D01*
X152050543Y-99339044D01*
X152071613Y-99329079D01*
X152093557Y-99321227D01*
X152116166Y-99315563D01*
X152139221Y-99312144D01*
X152162500Y-99311000D01*
X152637500Y-99311000D01*
X152660779Y-99312144D01*
X152660779Y-99312144D01*
G37*
D13*
G04 #@! TD*
G04 #@! TO.P,R3,1*
G04 #@! TO.N,Net-(C5-Pad2)*
X152400000Y-99836000D03*
D11*
G04 #@! TO.N,Net-(C8-Pad2)*
G04 #@! TO.C,R3*
G36*
X152660779Y-101062144D02*
X152683834Y-101065563D01*
X152706443Y-101071227D01*
X152728387Y-101079079D01*
X152749457Y-101089044D01*
X152769448Y-101101026D01*
X152788168Y-101114910D01*
X152805438Y-101130562D01*
X152821090Y-101147832D01*
X152834974Y-101166552D01*
X152846956Y-101186543D01*
X152856921Y-101207613D01*
X152864773Y-101229557D01*
X152870437Y-101252166D01*
X152873856Y-101275221D01*
X152875000Y-101298500D01*
X152875000Y-101873500D01*
X152873856Y-101896779D01*
X152870437Y-101919834D01*
X152864773Y-101942443D01*
X152856921Y-101964387D01*
X152846956Y-101985457D01*
X152834974Y-102005448D01*
X152821090Y-102024168D01*
X152805438Y-102041438D01*
X152788168Y-102057090D01*
X152769448Y-102070974D01*
X152749457Y-102082956D01*
X152728387Y-102092921D01*
X152706443Y-102100773D01*
X152683834Y-102106437D01*
X152660779Y-102109856D01*
X152637500Y-102111000D01*
X152162500Y-102111000D01*
X152139221Y-102109856D01*
X152116166Y-102106437D01*
X152093557Y-102100773D01*
X152071613Y-102092921D01*
X152050543Y-102082956D01*
X152030552Y-102070974D01*
X152011832Y-102057090D01*
X151994562Y-102041438D01*
X151978910Y-102024168D01*
X151965026Y-102005448D01*
X151953044Y-101985457D01*
X151943079Y-101964387D01*
X151935227Y-101942443D01*
X151929563Y-101919834D01*
X151926144Y-101896779D01*
X151925000Y-101873500D01*
X151925000Y-101298500D01*
X151926144Y-101275221D01*
X151929563Y-101252166D01*
X151935227Y-101229557D01*
X151943079Y-101207613D01*
X151953044Y-101186543D01*
X151965026Y-101166552D01*
X151978910Y-101147832D01*
X151994562Y-101130562D01*
X152011832Y-101114910D01*
X152030552Y-101101026D01*
X152050543Y-101089044D01*
X152071613Y-101079079D01*
X152093557Y-101071227D01*
X152116166Y-101065563D01*
X152139221Y-101062144D01*
X152162500Y-101061000D01*
X152637500Y-101061000D01*
X152660779Y-101062144D01*
X152660779Y-101062144D01*
G37*
D13*
G04 #@! TD*
G04 #@! TO.P,R3,2*
G04 #@! TO.N,Net-(C8-Pad2)*
X152400000Y-101586000D03*
D21*
G04 #@! TO.N,GND*
X137414000Y-119380000D03*
X141224000Y-119380000D03*
X145542000Y-119380000D03*
X149860000Y-119380000D03*
X154432000Y-119380000D03*
X158496000Y-119380000D03*
X162306000Y-119380000D03*
X137160000Y-113030000D03*
X141224000Y-113030000D03*
X145542000Y-113030000D03*
X148844000Y-113030000D03*
X148844000Y-109474000D03*
X148844000Y-104902000D03*
X148844000Y-101092000D03*
X148844000Y-95758000D03*
X156464000Y-112522000D03*
X161544000Y-112522000D03*
X156210000Y-109220000D03*
X156210000Y-104902000D03*
X156210000Y-101092000D03*
X156210000Y-95758000D03*
X156210000Y-90932000D03*
X156210000Y-86614000D03*
X156210000Y-82296000D03*
X156210000Y-78994000D03*
X159766000Y-78994000D03*
X164846000Y-78994000D03*
X164846000Y-74422000D03*
X164846000Y-69850000D03*
X164846000Y-65024000D03*
X144780000Y-95758000D03*
X140462000Y-95758000D03*
X140208000Y-89662000D03*
X140208000Y-84328000D03*
X150196778Y-82804000D03*
X131064000Y-126746000D03*
X143002000Y-126746000D03*
X155448000Y-126746000D03*
X169926000Y-126746000D03*
X150114000Y-79248000D03*
X171196000Y-94996000D03*
X170942000Y-77470000D03*
X129794000Y-99822000D03*
X129540000Y-88138000D03*
X129540000Y-76708000D03*
X129794000Y-66548000D03*
X136652000Y-66040000D03*
X144272000Y-66548000D03*
X144526000Y-72390000D03*
X142494000Y-76962000D03*
D22*
G04 #@! TO.N,Net-(C1-Pad2)*
X140716000Y-81407000D03*
X155448000Y-75057000D03*
G04 #@! TD*
D23*
G04 #@! TO.N,GND*
X150294738Y-81191656D02*
X150196778Y-81289616D01*
X150196778Y-84778354D02*
X150241000Y-84822576D01*
X150241000Y-90553507D02*
X150086289Y-90708218D01*
D24*
X147444738Y-71918596D02*
X147156404Y-71918596D01*
X145796000Y-73279000D02*
X145796000Y-75452000D01*
X147156404Y-71918596D02*
X145796000Y-73279000D01*
D25*
X148880268Y-117313157D02*
X148880268Y-119380000D01*
D26*
X149346920Y-114732938D02*
X149352000Y-114727858D01*
X149346920Y-115224560D02*
X149346920Y-114732938D01*
X149352000Y-114727858D02*
X149352000Y-113157000D01*
D25*
X148880268Y-119380000D02*
X148880268Y-119597732D01*
D23*
X150196778Y-90597729D02*
X150086289Y-90708218D01*
X150196778Y-82804000D02*
X150196778Y-90597729D01*
G04 #@! TO.N,Net-(C1-Pad2)*
X151191000Y-84617576D02*
X151191000Y-84822576D01*
X153543000Y-82265576D02*
X151191000Y-84617576D01*
X153494738Y-73618596D02*
X153543000Y-73666858D01*
X153494738Y-72018596D02*
X153494738Y-73618596D01*
X152581394Y-81280000D02*
X153543000Y-81280000D01*
X152571778Y-81289616D02*
X152581394Y-81280000D01*
X151946778Y-81289616D02*
X152571778Y-81289616D01*
X153543000Y-81280000D02*
X153543000Y-82265576D01*
X153505444Y-77253556D02*
X153543000Y-77216000D01*
X152254258Y-77253556D02*
X153505444Y-77253556D01*
X153543000Y-77216000D02*
X153543000Y-81280000D01*
X153543000Y-77216000D02*
X159399000Y-77216000D01*
D24*
X144032000Y-81407000D02*
X140716000Y-81407000D01*
X154740894Y-75057000D02*
X153543000Y-75057000D01*
X155448000Y-75057000D02*
X154740894Y-75057000D01*
D23*
X153543000Y-73666858D02*
X153543000Y-75057000D01*
X153543000Y-75057000D02*
X153543000Y-77216000D01*
D24*
G04 #@! TO.N,Net-(C2-Pad1)*
X145796000Y-81393000D02*
X145782000Y-81407000D01*
X145796000Y-77202000D02*
X145796000Y-81393000D01*
D23*
X149291000Y-84822576D02*
X149291000Y-84617576D01*
X149291000Y-84822576D02*
X149291000Y-83505000D01*
X149291000Y-83505000D02*
X147193000Y-81407000D01*
X147193000Y-81407000D02*
X145782000Y-81407000D01*
G04 #@! TO.N,Net-(C4-Pad1)*
X149291000Y-88152576D02*
X148670576Y-88773000D01*
X149291000Y-87022576D02*
X149291000Y-88152576D01*
X148670576Y-88773000D02*
X145542000Y-88773000D01*
X145048000Y-89267000D02*
X145048000Y-90678000D01*
X145542000Y-88773000D02*
X145048000Y-89267000D01*
D24*
G04 #@! TO.N,Net-(C5-Pad2)*
X151191000Y-87022576D02*
X151411576Y-87022576D01*
X151411576Y-87022576D02*
X152400000Y-88011000D01*
D26*
X152369782Y-90708218D02*
X152400000Y-90678000D01*
X151836289Y-90708218D02*
X152369782Y-90708218D01*
D24*
X152400000Y-88011000D02*
X152400000Y-90678000D01*
X152400000Y-90678000D02*
X152400000Y-99836000D01*
D27*
G04 #@! TO.N,Net-(C6-Pad1)*
X148029943Y-116332000D02*
X148044644Y-116317299D01*
X140575000Y-116332000D02*
X148029943Y-116332000D01*
G04 #@! TO.N,Net-(C6-Pad2)*
X130868000Y-116332000D02*
X138825000Y-116332000D01*
G04 #@! TO.N,Net-(C10-Pad2)*
X160369102Y-116220418D02*
X160415000Y-116174520D01*
X150182544Y-116220418D02*
X152400000Y-116220418D01*
X152400000Y-116220418D02*
X160369102Y-116220418D01*
D24*
X152400000Y-114667000D02*
X152400000Y-116220418D01*
G04 #@! TO.N,Net-(C10-Pad1)*
X169143680Y-116174520D02*
X169270680Y-116047520D01*
X162165000Y-116174520D02*
X169143680Y-116174520D01*
G04 #@! TO.N,Net-(C8-Pad2)*
X152400000Y-101586000D02*
X152400000Y-102211000D01*
D26*
X151878000Y-105029000D02*
X152400000Y-105029000D01*
D24*
X152400000Y-102211000D02*
X152400000Y-105029000D01*
D26*
X151878000Y-108585000D02*
X152400000Y-108585000D01*
D24*
X152400000Y-105029000D02*
X152400000Y-108585000D01*
X152400000Y-108585000D02*
X152400000Y-112917000D01*
D23*
G04 #@! TO.N,Net-(D1-Pad2)*
X161149000Y-77216000D02*
X162179000Y-77216000D01*
X162941000Y-76454000D02*
X162941000Y-68185000D01*
X162179000Y-77216000D02*
X162941000Y-76454000D01*
G04 #@! TD*
D28*
G04 #@! TO.N,GND*
G36*
X171503405Y-126798000D02*
X128726000Y-126798000D01*
X128726000Y-118618000D01*
X171519603Y-118618000D01*
X171503405Y-126798000D01*
X171503405Y-126798000D01*
G37*
X171503405Y-126798000D02*
X128726000Y-126798000D01*
X128726000Y-118618000D01*
X171519603Y-118618000D01*
X171503405Y-126798000D01*
G36*
X171529914Y-113411000D02*
X154559000Y-113411000D01*
X154559000Y-78867000D01*
X171598318Y-78867000D01*
X171529914Y-113411000D01*
X171529914Y-113411000D01*
G37*
X171529914Y-113411000D02*
X154559000Y-113411000D01*
X154559000Y-78867000D01*
X171598318Y-78867000D01*
X171529914Y-113411000D01*
G36*
X150495000Y-114046000D02*
X128726000Y-114046000D01*
X128726000Y-92456000D01*
X150495000Y-92456000D01*
X150495000Y-114046000D01*
X150495000Y-114046000D01*
G37*
X150495000Y-114046000D02*
X128726000Y-114046000D01*
X128726000Y-92456000D01*
X150495000Y-92456000D01*
X150495000Y-114046000D01*
G36*
X171598318Y-78867000D02*
X154559000Y-78867000D01*
X154559000Y-78151000D01*
X158593139Y-78151000D01*
X158772848Y-78271078D01*
X159111500Y-78338440D01*
X159686500Y-78338440D01*
X160025152Y-78271078D01*
X160274000Y-78104803D01*
X160522848Y-78271078D01*
X160861500Y-78338440D01*
X161436500Y-78338440D01*
X161775152Y-78271078D01*
X161954861Y-78151000D01*
X162086914Y-78151000D01*
X162179000Y-78169317D01*
X162271086Y-78151000D01*
X162543819Y-78096750D01*
X162853097Y-77890097D01*
X162905261Y-77812028D01*
X163537031Y-77180259D01*
X163615097Y-77128097D01*
X163821750Y-76818819D01*
X163876000Y-76546086D01*
X163876000Y-76546085D01*
X163894317Y-76454000D01*
X163876000Y-76361914D01*
X163876000Y-68990861D01*
X163996078Y-68811152D01*
X164063440Y-68472500D01*
X164063440Y-67897500D01*
X163996078Y-67558848D01*
X163804247Y-67271753D01*
X163517152Y-67079922D01*
X163178500Y-67012560D01*
X162703500Y-67012560D01*
X162364848Y-67079922D01*
X162077753Y-67271753D01*
X161885922Y-67558848D01*
X161818560Y-67897500D01*
X161818560Y-68472500D01*
X161885922Y-68811152D01*
X162006001Y-68990863D01*
X162006000Y-76066710D01*
X161857060Y-76215651D01*
X161775152Y-76160922D01*
X161436500Y-76093560D01*
X160861500Y-76093560D01*
X160522848Y-76160922D01*
X160274000Y-76327197D01*
X160025152Y-76160922D01*
X159686500Y-76093560D01*
X159111500Y-76093560D01*
X158772848Y-76160922D01*
X158593139Y-76281000D01*
X154559000Y-76281000D01*
X154559000Y-76142000D01*
X155101523Y-76142000D01*
X155222234Y-76192000D01*
X155673766Y-76192000D01*
X156090926Y-76019207D01*
X156410207Y-75699926D01*
X156583000Y-75282766D01*
X156583000Y-74831234D01*
X156410207Y-74414074D01*
X156090926Y-74094793D01*
X155673766Y-73922000D01*
X155222234Y-73922000D01*
X155101523Y-73972000D01*
X154559000Y-73972000D01*
X154559000Y-70354808D01*
X154737664Y-70280803D01*
X155056945Y-69961522D01*
X155229738Y-69544362D01*
X155229738Y-69092830D01*
X155056945Y-68675670D01*
X154737664Y-68356389D01*
X154559000Y-68282384D01*
X154559000Y-64083000D01*
X171627593Y-64083000D01*
X171598318Y-78867000D01*
X171598318Y-78867000D01*
G37*
X171598318Y-78867000D02*
X154559000Y-78867000D01*
X154559000Y-78151000D01*
X158593139Y-78151000D01*
X158772848Y-78271078D01*
X159111500Y-78338440D01*
X159686500Y-78338440D01*
X160025152Y-78271078D01*
X160274000Y-78104803D01*
X160522848Y-78271078D01*
X160861500Y-78338440D01*
X161436500Y-78338440D01*
X161775152Y-78271078D01*
X161954861Y-78151000D01*
X162086914Y-78151000D01*
X162179000Y-78169317D01*
X162271086Y-78151000D01*
X162543819Y-78096750D01*
X162853097Y-77890097D01*
X162905261Y-77812028D01*
X163537031Y-77180259D01*
X163615097Y-77128097D01*
X163821750Y-76818819D01*
X163876000Y-76546086D01*
X163876000Y-76546085D01*
X163894317Y-76454000D01*
X163876000Y-76361914D01*
X163876000Y-68990861D01*
X163996078Y-68811152D01*
X164063440Y-68472500D01*
X164063440Y-67897500D01*
X163996078Y-67558848D01*
X163804247Y-67271753D01*
X163517152Y-67079922D01*
X163178500Y-67012560D01*
X162703500Y-67012560D01*
X162364848Y-67079922D01*
X162077753Y-67271753D01*
X161885922Y-67558848D01*
X161818560Y-67897500D01*
X161818560Y-68472500D01*
X161885922Y-68811152D01*
X162006001Y-68990863D01*
X162006000Y-76066710D01*
X161857060Y-76215651D01*
X161775152Y-76160922D01*
X161436500Y-76093560D01*
X160861500Y-76093560D01*
X160522848Y-76160922D01*
X160274000Y-76327197D01*
X160025152Y-76160922D01*
X159686500Y-76093560D01*
X159111500Y-76093560D01*
X158772848Y-76160922D01*
X158593139Y-76281000D01*
X154559000Y-76281000D01*
X154559000Y-76142000D01*
X155101523Y-76142000D01*
X155222234Y-76192000D01*
X155673766Y-76192000D01*
X156090926Y-76019207D01*
X156410207Y-75699926D01*
X156583000Y-75282766D01*
X156583000Y-74831234D01*
X156410207Y-74414074D01*
X156090926Y-74094793D01*
X155673766Y-73922000D01*
X155222234Y-73922000D01*
X155101523Y-73972000D01*
X154559000Y-73972000D01*
X154559000Y-70354808D01*
X154737664Y-70280803D01*
X155056945Y-69961522D01*
X155229738Y-69544362D01*
X155229738Y-69092830D01*
X155056945Y-68675670D01*
X154737664Y-68356389D01*
X154559000Y-68282384D01*
X154559000Y-64083000D01*
X171627593Y-64083000D01*
X171598318Y-78867000D01*
G36*
X150495000Y-68513725D02*
X150337664Y-68356389D01*
X149920504Y-68183596D01*
X149468972Y-68183596D01*
X149051812Y-68356389D01*
X148732531Y-68675670D01*
X148559738Y-69092830D01*
X148559738Y-69544362D01*
X148732531Y-69961522D01*
X149051812Y-70280803D01*
X149468972Y-70453596D01*
X149920504Y-70453596D01*
X150337664Y-70280803D01*
X150495000Y-70123467D01*
X150495000Y-70488576D01*
X150386929Y-70560787D01*
X150246581Y-70770831D01*
X150197298Y-71018596D01*
X150197298Y-73018596D01*
X150246581Y-73266361D01*
X150386929Y-73476405D01*
X150495000Y-73548616D01*
X150495000Y-83776763D01*
X150408191Y-83834767D01*
X150267843Y-84044811D01*
X150241000Y-84179761D01*
X150226000Y-84104350D01*
X150226000Y-83597085D01*
X150244317Y-83504999D01*
X150171750Y-83140181D01*
X150017259Y-82908969D01*
X149965097Y-82830903D01*
X149887031Y-82778741D01*
X147919261Y-80810972D01*
X147867097Y-80732903D01*
X147557819Y-80526250D01*
X147285086Y-80472000D01*
X147193000Y-80453683D01*
X147100914Y-80472000D01*
X146881000Y-80472000D01*
X146881000Y-77677724D01*
X146918440Y-77489500D01*
X146918440Y-76914500D01*
X146851078Y-76575848D01*
X146659247Y-76288753D01*
X146372152Y-76096922D01*
X146033500Y-76029560D01*
X145558500Y-76029560D01*
X145219848Y-76096922D01*
X144932753Y-76288753D01*
X144740922Y-76575848D01*
X144673560Y-76914500D01*
X144673560Y-77489500D01*
X144711000Y-77677724D01*
X144711001Y-80387234D01*
X144658152Y-80351922D01*
X144319500Y-80284560D01*
X143744500Y-80284560D01*
X143556276Y-80322000D01*
X141062477Y-80322000D01*
X140941766Y-80272000D01*
X140490234Y-80272000D01*
X140073074Y-80444793D01*
X139753793Y-80764074D01*
X139581000Y-81181234D01*
X139581000Y-81632766D01*
X139753793Y-82049926D01*
X140073074Y-82369207D01*
X140490234Y-82542000D01*
X140941766Y-82542000D01*
X141062477Y-82492000D01*
X143556276Y-82492000D01*
X143744500Y-82529440D01*
X144319500Y-82529440D01*
X144658152Y-82462078D01*
X144907000Y-82295803D01*
X145155848Y-82462078D01*
X145494500Y-82529440D01*
X146069500Y-82529440D01*
X146408152Y-82462078D01*
X146587861Y-82342000D01*
X146805711Y-82342000D01*
X148356001Y-83892291D01*
X148356001Y-84104348D01*
X148318560Y-84292576D01*
X148318560Y-85352576D01*
X148367843Y-85600341D01*
X148508191Y-85810385D01*
X148676095Y-85922576D01*
X148508191Y-86034767D01*
X148367843Y-86244811D01*
X148318560Y-86492576D01*
X148318560Y-87552576D01*
X148356001Y-87740805D01*
X148356001Y-87765286D01*
X148283287Y-87838000D01*
X145634080Y-87838000D01*
X145541999Y-87819684D01*
X145449918Y-87838000D01*
X145449914Y-87838000D01*
X145177181Y-87892250D01*
X144867903Y-88098903D01*
X144815739Y-88176972D01*
X144451972Y-88540739D01*
X144373903Y-88592903D01*
X144199596Y-88853773D01*
X144167250Y-88902182D01*
X144094683Y-89267000D01*
X144113000Y-89359086D01*
X144113000Y-89847308D01*
X143942922Y-90101848D01*
X143875560Y-90440500D01*
X143875560Y-90915500D01*
X143942922Y-91254152D01*
X144134753Y-91541247D01*
X144421848Y-91733078D01*
X144760500Y-91800440D01*
X145335500Y-91800440D01*
X145674152Y-91733078D01*
X145961247Y-91541247D01*
X146153078Y-91254152D01*
X146220440Y-90915500D01*
X146220440Y-90440500D01*
X146153078Y-90101848D01*
X145983000Y-89847309D01*
X145983000Y-89708000D01*
X148578490Y-89708000D01*
X148670576Y-89726317D01*
X148762662Y-89708000D01*
X149035395Y-89653750D01*
X149344673Y-89447097D01*
X149396837Y-89369028D01*
X149887030Y-88878835D01*
X149965097Y-88826673D01*
X150171750Y-88517395D01*
X150226000Y-88244662D01*
X150244317Y-88152577D01*
X150226000Y-88060491D01*
X150226000Y-87740802D01*
X150241000Y-87665391D01*
X150267843Y-87800341D01*
X150408191Y-88010385D01*
X150495000Y-88068389D01*
X150495000Y-92454517D01*
X128726000Y-92201637D01*
X128726000Y-64083000D01*
X150495000Y-64083000D01*
X150495000Y-68513725D01*
X150495000Y-68513725D01*
G37*
X150495000Y-68513725D02*
X150337664Y-68356389D01*
X149920504Y-68183596D01*
X149468972Y-68183596D01*
X149051812Y-68356389D01*
X148732531Y-68675670D01*
X148559738Y-69092830D01*
X148559738Y-69544362D01*
X148732531Y-69961522D01*
X149051812Y-70280803D01*
X149468972Y-70453596D01*
X149920504Y-70453596D01*
X150337664Y-70280803D01*
X150495000Y-70123467D01*
X150495000Y-70488576D01*
X150386929Y-70560787D01*
X150246581Y-70770831D01*
X150197298Y-71018596D01*
X150197298Y-73018596D01*
X150246581Y-73266361D01*
X150386929Y-73476405D01*
X150495000Y-73548616D01*
X150495000Y-83776763D01*
X150408191Y-83834767D01*
X150267843Y-84044811D01*
X150241000Y-84179761D01*
X150226000Y-84104350D01*
X150226000Y-83597085D01*
X150244317Y-83504999D01*
X150171750Y-83140181D01*
X150017259Y-82908969D01*
X149965097Y-82830903D01*
X149887031Y-82778741D01*
X147919261Y-80810972D01*
X147867097Y-80732903D01*
X147557819Y-80526250D01*
X147285086Y-80472000D01*
X147193000Y-80453683D01*
X147100914Y-80472000D01*
X146881000Y-80472000D01*
X146881000Y-77677724D01*
X146918440Y-77489500D01*
X146918440Y-76914500D01*
X146851078Y-76575848D01*
X146659247Y-76288753D01*
X146372152Y-76096922D01*
X146033500Y-76029560D01*
X145558500Y-76029560D01*
X145219848Y-76096922D01*
X144932753Y-76288753D01*
X144740922Y-76575848D01*
X144673560Y-76914500D01*
X144673560Y-77489500D01*
X144711000Y-77677724D01*
X144711001Y-80387234D01*
X144658152Y-80351922D01*
X144319500Y-80284560D01*
X143744500Y-80284560D01*
X143556276Y-80322000D01*
X141062477Y-80322000D01*
X140941766Y-80272000D01*
X140490234Y-80272000D01*
X140073074Y-80444793D01*
X139753793Y-80764074D01*
X139581000Y-81181234D01*
X139581000Y-81632766D01*
X139753793Y-82049926D01*
X140073074Y-82369207D01*
X140490234Y-82542000D01*
X140941766Y-82542000D01*
X141062477Y-82492000D01*
X143556276Y-82492000D01*
X143744500Y-82529440D01*
X144319500Y-82529440D01*
X144658152Y-82462078D01*
X144907000Y-82295803D01*
X145155848Y-82462078D01*
X145494500Y-82529440D01*
X146069500Y-82529440D01*
X146408152Y-82462078D01*
X146587861Y-82342000D01*
X146805711Y-82342000D01*
X148356001Y-83892291D01*
X148356001Y-84104348D01*
X148318560Y-84292576D01*
X148318560Y-85352576D01*
X148367843Y-85600341D01*
X148508191Y-85810385D01*
X148676095Y-85922576D01*
X148508191Y-86034767D01*
X148367843Y-86244811D01*
X148318560Y-86492576D01*
X148318560Y-87552576D01*
X148356001Y-87740805D01*
X148356001Y-87765286D01*
X148283287Y-87838000D01*
X145634080Y-87838000D01*
X145541999Y-87819684D01*
X145449918Y-87838000D01*
X145449914Y-87838000D01*
X145177181Y-87892250D01*
X144867903Y-88098903D01*
X144815739Y-88176972D01*
X144451972Y-88540739D01*
X144373903Y-88592903D01*
X144199596Y-88853773D01*
X144167250Y-88902182D01*
X144094683Y-89267000D01*
X144113000Y-89359086D01*
X144113000Y-89847308D01*
X143942922Y-90101848D01*
X143875560Y-90440500D01*
X143875560Y-90915500D01*
X143942922Y-91254152D01*
X144134753Y-91541247D01*
X144421848Y-91733078D01*
X144760500Y-91800440D01*
X145335500Y-91800440D01*
X145674152Y-91733078D01*
X145961247Y-91541247D01*
X146153078Y-91254152D01*
X146220440Y-90915500D01*
X146220440Y-90440500D01*
X146153078Y-90101848D01*
X145983000Y-89847309D01*
X145983000Y-89708000D01*
X148578490Y-89708000D01*
X148670576Y-89726317D01*
X148762662Y-89708000D01*
X149035395Y-89653750D01*
X149344673Y-89447097D01*
X149396837Y-89369028D01*
X149887030Y-88878835D01*
X149965097Y-88826673D01*
X150171750Y-88517395D01*
X150226000Y-88244662D01*
X150244317Y-88152577D01*
X150226000Y-88060491D01*
X150226000Y-87740802D01*
X150241000Y-87665391D01*
X150267843Y-87800341D01*
X150408191Y-88010385D01*
X150495000Y-88068389D01*
X150495000Y-92454517D01*
X128726000Y-92201637D01*
X128726000Y-64083000D01*
X150495000Y-64083000D01*
X150495000Y-68513725D01*
G36*
X155194000Y-69006551D02*
X155056945Y-68675670D01*
X154737664Y-68356389D01*
X154320504Y-68183596D01*
X153868972Y-68183596D01*
X153451812Y-68356389D01*
X153132531Y-68675670D01*
X152959738Y-69092830D01*
X152959738Y-69544362D01*
X153132531Y-69961522D01*
X153451812Y-70280803D01*
X153669944Y-70371156D01*
X153244738Y-70371156D01*
X153094738Y-70400993D01*
X152944738Y-70371156D01*
X152444738Y-70371156D01*
X152294738Y-70400993D01*
X152144738Y-70371156D01*
X151644738Y-70371156D01*
X151494738Y-70400993D01*
X151344738Y-70371156D01*
X150844738Y-70371156D01*
X150596973Y-70420439D01*
X150386929Y-70560787D01*
X150246581Y-70770831D01*
X150197298Y-71018596D01*
X150197298Y-72009000D01*
X147701000Y-72009000D01*
X147701000Y-69092830D01*
X148559738Y-69092830D01*
X148559738Y-69544362D01*
X148732531Y-69961522D01*
X149051812Y-70280803D01*
X149468972Y-70453596D01*
X149920504Y-70453596D01*
X150337664Y-70280803D01*
X150656945Y-69961522D01*
X150829738Y-69544362D01*
X150829738Y-69092830D01*
X150656945Y-68675670D01*
X150337664Y-68356389D01*
X149920504Y-68183596D01*
X149468972Y-68183596D01*
X149051812Y-68356389D01*
X148732531Y-68675670D01*
X148559738Y-69092830D01*
X147701000Y-69092830D01*
X147701000Y-64083000D01*
X155194000Y-64083000D01*
X155194000Y-69006551D01*
X155194000Y-69006551D01*
G37*
X155194000Y-69006551D02*
X155056945Y-68675670D01*
X154737664Y-68356389D01*
X154320504Y-68183596D01*
X153868972Y-68183596D01*
X153451812Y-68356389D01*
X153132531Y-68675670D01*
X152959738Y-69092830D01*
X152959738Y-69544362D01*
X153132531Y-69961522D01*
X153451812Y-70280803D01*
X153669944Y-70371156D01*
X153244738Y-70371156D01*
X153094738Y-70400993D01*
X152944738Y-70371156D01*
X152444738Y-70371156D01*
X152294738Y-70400993D01*
X152144738Y-70371156D01*
X151644738Y-70371156D01*
X151494738Y-70400993D01*
X151344738Y-70371156D01*
X150844738Y-70371156D01*
X150596973Y-70420439D01*
X150386929Y-70560787D01*
X150246581Y-70770831D01*
X150197298Y-71018596D01*
X150197298Y-72009000D01*
X147701000Y-72009000D01*
X147701000Y-69092830D01*
X148559738Y-69092830D01*
X148559738Y-69544362D01*
X148732531Y-69961522D01*
X149051812Y-70280803D01*
X149468972Y-70453596D01*
X149920504Y-70453596D01*
X150337664Y-70280803D01*
X150656945Y-69961522D01*
X150829738Y-69544362D01*
X150829738Y-69092830D01*
X150656945Y-68675670D01*
X150337664Y-68356389D01*
X149920504Y-68183596D01*
X149468972Y-68183596D01*
X149051812Y-68356389D01*
X148732531Y-68675670D01*
X148559738Y-69092830D01*
X147701000Y-69092830D01*
X147701000Y-64083000D01*
X155194000Y-64083000D01*
X155194000Y-69006551D01*
G36*
X155194000Y-72009000D02*
X154429738Y-72009000D01*
X154429738Y-71926510D01*
X154392178Y-71737683D01*
X154392178Y-71018596D01*
X154342895Y-70770831D01*
X154202547Y-70560787D01*
X154042126Y-70453596D01*
X154320504Y-70453596D01*
X154737664Y-70280803D01*
X155056945Y-69961522D01*
X155194000Y-69630641D01*
X155194000Y-72009000D01*
X155194000Y-72009000D01*
G37*
X155194000Y-72009000D02*
X154429738Y-72009000D01*
X154429738Y-71926510D01*
X154392178Y-71737683D01*
X154392178Y-71018596D01*
X154342895Y-70770831D01*
X154202547Y-70560787D01*
X154042126Y-70453596D01*
X154320504Y-70453596D01*
X154737664Y-70280803D01*
X155056945Y-69961522D01*
X155194000Y-69630641D01*
X155194000Y-72009000D01*
G04 #@! TD*
M02*
