M48
;DRILL file {KiCad (5.0.0)} date 08/28/18 03:14:22
;FORMAT={-:-/ absolute / inch / decimal}
FMAT,2
INCH,TZ
T1C0.0157
T2C0.0181
T3C0.0236
%
G90
G05
M72
T1
X5.1Y-3.02
X5.1Y-3.47
X5.11Y-2.62
X5.11Y-3.93
X5.16Y-4.99
X5.38Y-2.6
X5.4Y-4.45
X5.41Y-4.7
X5.52Y-3.32
X5.52Y-3.53
X5.53Y-3.77
X5.56Y-4.45
X5.56Y-4.7
X5.61Y-3.03
X5.63Y-4.99
X5.68Y-2.62
X5.69Y-2.85
X5.7Y-3.77
X5.73Y-4.45
X5.73Y-4.7
X5.86Y-3.77
X5.86Y-3.98
X5.86Y-4.13
X5.86Y-4.31
X5.86Y-4.45
X5.9Y-4.7
X5.91Y-3.12
X5.9133Y-3.26
X6.08Y-4.7
X6.12Y-4.99
X6.15Y-3.11
X6.15Y-3.24
X6.15Y-3.41
X6.15Y-3.58
X6.15Y-3.77
X6.15Y-3.98
X6.15Y-4.13
X6.15Y-4.3
X6.16Y-4.43
X6.24Y-4.7
X6.29Y-3.11
X6.36Y-4.43
X6.39Y-4.7
X6.49Y-2.56
X6.49Y-2.75
X6.49Y-2.93
X6.49Y-3.11
X6.69Y-4.99
X6.73Y-3.05
X6.74Y-3.74
T2
X6.5288Y-4.3964
X6.5288Y-4.7412
X5.2877Y-4.4076
X5.2877Y-4.7524
T3
X5.54Y-3.205
X6.12Y-2.955
T0
M30
